<svg width="318" height="195" viewBox="0 0 318 195" fill="none" xmlns="http://www.w3.org/2000/svg">
<path d="M91.7402 133.928C91.0943 133.907 90.4639 134.456 90.4641 135.158C90.0622 145.457 87.3115 152.46 79.5309 155.292C74.0055 157.303 69.5862 155.336 67.3904 149.303C66.2002 146.033 65.917 141.922 65.6952 137.278C66.6947 137.042 67.3918 136.852 68.2376 136.544C77.8224 133.055 86.8827 123.564 83.4351 114.092C81.8139 109.638 78.2351 107.173 73.5708 108.743C65.5031 111.488 63.0824 125.012 63.2084 135.182C58.1594 135.87 53.8632 134.241 52.0368 129.223C50.9081 126.122 50.9376 121.642 52.1464 118.648C52.2899 118.341 52.2437 118.038 52.1411 117.756C51.8743 117.023 51.1463 116.777 50.5261 117.003C50.1878 117.126 49.8906 117.362 49.7676 117.726C48.395 121.674 48.3144 126.364 49.7098 130.198C51.803 135.949 56.9401 138.485 63.1835 137.745C63.3695 142.466 63.7706 146.726 65.0224 150.165C67.567 157.156 73.0632 160.328 80.3928 157.66C89.1883 154.459 92.5026 146.548 92.9913 135.26C92.9911 134.558 92.463 133.984 91.7402 133.928ZM65.7201 134.715C65.6612 126.308 67.7797 113.533 74.4327 111.111C77.5337 109.983 79.8974 111.74 81.0671 114.954C83.9811 122.96 75.551 131.2 67.2065 134.237C66.6991 134.422 66.1917 134.607 65.7201 134.715ZM114.301 125.78C114.111 125.785 113.921 125.791 113.752 125.852C113.301 126.016 113.009 126.442 112.948 126.975C112.381 135.418 111.331 139.376 108.625 140.361C107.441 140.792 106.667 140.243 106.072 138.608C104.594 134.549 105.934 124.547 104.375 120.262C103.287 117.274 101.149 115.434 97.1458 116.891C95.3416 117.548 94.0196 119.179 92.9796 121.409C92.9471 115.355 92.8946 111.351 92.8685 109.701C92.8836 108.865 92.012 108.225 91.1663 108.533C90.6589 108.717 90.3104 109.163 90.3054 109.676C90.4354 115.822 90.4706 131.006 90.532 147.84C90.5322 148.542 91.1167 149.096 91.819 149.096C92.5008 149.039 93.0747 148.511 93.054 147.752C93.0648 132.169 92.7719 129.785 94.6823 123.982C95.4915 121.644 96.5982 119.773 98.0077 119.26C100.207 118.459 101.412 119.489 102.007 121.124C103.587 125.466 101.816 134.283 103.704 139.47C104.709 142.233 106.724 143.734 109.487 142.729C113.321 141.333 114.76 137.042 115.495 127.133C115.49 126.944 115.485 126.754 115.444 126.641C115.259 126.134 114.834 125.842 114.301 125.78ZM132.197 119.267C131.495 119.267 130.921 119.795 130.844 120.461C130.334 128.884 127.916 133.467 123.251 135.037C119.827 136.156 117.305 134.839 116.248 131.584C115.873 130.38 115.653 129.247 115.514 127.637C121.218 123.837 128.305 117.171 126.13 111.195C125.145 108.488 122.638 107.741 119.819 108.767C113.166 111.188 111.571 125.05 113.859 132.39C115.429 137.054 119.377 139.129 124.057 137.426C129.751 135.353 132.682 130.072 133.392 120.62C133.386 120.43 133.402 120.297 133.34 120.127C133.176 119.676 132.73 119.328 132.197 119.267ZM115.431 124.603C115.655 119.605 116.791 112.551 120.681 111.135C121.922 110.683 123.208 110.534 123.762 112.057C125.281 116.229 119.577 121.434 115.431 124.603ZM150.091 112.753C149.389 112.754 148.815 113.282 148.738 113.948C148.279 121.458 146.22 126.677 140.751 128.668C138.045 129.653 135.461 128.167 134.312 125.01C131.849 118.244 134.291 106.181 138.688 104.581C140.38 103.965 141.462 104.657 142.18 106.63C143.001 108.885 141.996 110.336 142.284 111.126C142.551 111.859 143.145 112.089 143.878 111.822C145.175 111.35 145.471 108.305 144.548 105.768C143.419 102.667 141.04 101.043 137.827 102.213C132.076 104.306 128.722 117.02 131.923 125.815C133.606 130.438 137.441 132.554 141.557 131.056C148.097 128.676 150.638 123.026 151.286 114.106C151.281 113.917 151.296 113.783 151.235 113.614C151.071 113.163 150.625 112.815 150.091 112.753ZM151.306 126.55C151.37 114.97 151.243 104.098 151.121 88.4987C151.136 87.6631 150.264 87.0226 149.362 87.3509C148.911 87.5151 148.563 87.9612 148.558 88.4738C148.579 89.9347 148.658 96.9934 148.784 126.638C148.784 127.34 149.369 127.894 150.071 127.893C150.753 127.837 151.286 127.196 151.306 126.55ZM172.384 104.64C172.194 104.645 172.004 104.65 171.835 104.712C171.384 104.876 171.092 105.301 171.031 105.835C170.653 111.463 169.978 118.03 166.652 119.241C165.468 119.672 164.458 118.826 164.088 117.811C163.616 116.515 162.656 111.947 162.184 110.651C161.246 108.247 159.815 106.597 157.001 107.11L163.297 95.1129C163.441 94.8053 163.507 94.4619 163.384 94.1236C163.22 93.6725 162.559 93.0832 161.713 93.391C161.431 93.4936 161.262 93.5552 161.026 93.9602C156.031 103.568 152.506 110.023 152.04 111.023C151.502 112.176 152.235 113.314 153.476 112.863C154.547 112.473 154.777 110.473 156.412 109.878C158.329 109.181 159.226 110.067 159.816 111.513C160.242 112.507 160.504 113.752 160.745 114.942C161.048 116.3 161.33 117.602 161.782 118.842C162.562 120.985 164.92 122.553 167.514 121.609C172.193 119.905 173.068 113.011 173.578 105.993C173.573 105.803 173.568 105.613 173.507 105.444C173.342 104.993 172.896 104.645 172.384 104.64ZM211.757 90.3091C211.567 90.3143 211.378 90.3194 211.208 90.381C210.757 90.5452 210.465 90.9707 210.404 91.5039C209.674 100.198 208.731 103.925 206.081 104.89C204.897 105.32 204.123 104.772 203.528 103.137C201.948 98.7957 203.657 89.8091 201.831 84.7911C200.743 81.8029 198.662 79.9427 194.602 81.4203C192.742 82.0975 191.384 83.8049 190.364 86.0914L190.405 84.7996C190.42 83.9641 189.548 83.3236 188.703 83.6314C188.195 83.8161 187.847 84.2621 187.862 84.8311C187.859 91.6643 188.022 103.162 188.045 112.348C188.065 113.107 188.63 113.604 189.332 113.604C190.014 113.547 190.588 113.019 190.567 112.26L190.45 99.6603C190.51 94.2112 192.025 85.0401 195.464 83.7883C197.663 82.988 198.868 84.018 199.463 85.653C201.248 90.5582 199.231 98.6991 201.16 103.999C202.166 106.762 204.237 108.243 206.943 107.258C210.777 105.862 212.216 101.571 212.952 91.662C212.947 91.4724 212.941 91.2827 212.88 91.1135C212.716 90.6625 212.29 90.3704 211.757 90.3091ZM235 83.5733C235.051 82.6609 234.123 82.0409 233.277 82.3487C232.826 82.5129 232.478 82.959 232.473 83.4716C232.202 88.8695 231.009 91.7302 228.641 92.5921C227.344 93.0641 226.242 93.0183 225.334 92.4547C226.327 87.1129 226.12 80.9309 224.828 77.3788C223.596 73.9959 220.756 72.1565 216.994 73.3981C214.175 74.4242 212.13 77.4031 211.199 82.2117C210.446 85.9335 209.505 92.4696 211.885 99.0099C213.076 102.28 215.198 104.253 218.863 102.919C221.57 101.934 223.604 98.5758 224.664 94.9975C226.273 95.5609 227.924 95.5347 229.503 94.9601C232.886 93.7289 234.592 90.1708 235 83.5733ZM221.324 86.6992C220.76 86.9044 220.376 87.4274 220.468 88.0323C220.587 89.5854 221.377 92.1073 222.531 93.3475C221.635 96.6746 220.087 99.7917 218.001 100.551C216.197 101.208 215.008 100.044 214.269 98.0147C212.155 92.2074 213.153 85.6508 213.736 82.6928C214.345 79.2786 215.657 76.5665 217.799 75.7867C219.716 75.089 221.577 75.8163 222.439 78.1843C223.383 80.7779 223.728 85.0581 223.252 89.1899C223.165 88.7748 223.001 88.3237 223.006 87.8111C222.944 86.9397 222.113 86.4119 221.324 86.6992ZM264.584 72.2948C264.338 71.6182 263.533 71.3365 262.913 71.5622C262.462 71.7264 262.169 72.152 262.108 72.6851C261.822 77.514 260.983 80.8206 258.051 81.8877C257.036 82.2571 255.801 82.196 254.97 81.6682C255.692 77.5107 257.001 66.3712 257.634 60.3939C257.629 60.2043 257.624 60.0146 257.542 59.7891C257.316 59.1689 256.604 58.7898 255.983 59.0155C255.532 59.1797 255.184 59.6257 255.102 60.1025C254.688 64.4034 253.43 74.6305 252.908 78.4599C252.821 78.0447 252.693 77.5167 252.698 77.0041C252.636 76.1327 251.749 75.6254 250.96 75.9127C250.396 76.118 250.124 76.5999 250.16 77.2253C250.284 78.9681 250.93 81.0953 252.166 82.561C250.942 87.0929 250.4 88.759 248.595 89.4157C247.524 89.8056 246.699 89.4675 246.042 87.6633C245.016 84.8442 245.064 75.5044 245.189 64.7958C245.205 63.9603 244.333 63.3198 243.431 63.6481C242.98 63.8123 242.631 64.2583 242.626 64.771C242.642 66.7445 242.727 76.802 242.636 79.7085C242.362 88.4282 241.04 92.1656 238.334 93.1506C237.15 93.5815 236.396 93.0896 235.781 91.3982C234.98 89.1993 234.943 85.7648 234.928 68.5307C234.943 67.6951 234.184 67.0136 233.226 67.3624C232.775 67.5266 232.426 67.9727 232.421 68.4853C232.251 83.1051 232.387 89.441 233.413 92.2601C234.418 95.0228 236.49 96.5036 239.196 95.5186C241.733 94.5951 243.147 92.1649 243.941 89.2582C245.161 91.5595 246.864 92.7277 249.457 91.7837C252.107 90.8192 253.357 87.938 254.412 84.1699C255.642 84.7437 257.221 84.8714 258.913 84.2558C262.916 82.7988 264.637 77.7029 264.635 72.7869C264.63 72.5972 264.645 72.4639 264.584 72.2948ZM269.787 37.5817C269.085 37.5819 268.531 38.1665 268.588 38.8482L268.937 73.8392C268.937 74.5415 269.465 75.1155 270.167 75.1153C270.87 75.115 271.423 74.5305 271.423 73.8282L271.074 38.8372C271.074 38.135 270.489 37.5815 269.787 37.5817ZM269.651 80.5389C268.58 80.9288 268.063 82.1387 268.452 83.2099C268.842 84.2812 269.996 84.8191 271.067 84.4292C272.138 84.0393 272.733 82.8652 272.343 81.794C271.953 80.7227 270.722 80.149 269.651 80.5389Z" fill="#FFB5AB"/>
<path d="M2 120C6.49723 120 16.5519 119.104 19 124" stroke="#FFB5AB" stroke-width="2.4" stroke-linecap="round" stroke-linejoin="round"/>
<path d="M7 108C14.8878 106.461 17.7527 109.314 24 114" stroke="#FFB5AB" stroke-width="2.4" stroke-linecap="round" stroke-linejoin="round"/>
<path d="M28 92C26.6831 98.749 27.3292 100.494 31 106" stroke="#FFB5AB" stroke-width="2.4" stroke-linecap="round" stroke-linejoin="round"/>
<path d="M316 86C314.101 86.3617 300.493 87.0138 303 82" stroke="#FFB5AB" stroke-width="2.4" stroke-linecap="round" stroke-linejoin="round"/>
<path d="M315 98C309.701 97.907 302.534 97.1361 301 91" stroke="#FFB5AB" stroke-width="2.4" stroke-linecap="round" stroke-linejoin="round"/>
<path d="M307 117C304.379 108.974 299.186 100.791 292 96" stroke="#FFB5AB" stroke-width="2.4" stroke-linecap="round" stroke-linejoin="round"/>
</svg>
