<svg width="140" height="88" viewBox="0 0 140 88" fill="none" xmlns="http://www.w3.org/2000/svg">
<path d="M1 86.655C12.3175 66.9152 34.2849 51.6213 53.5139 40.2217C70.0264 30.4325 89.9251 19.2206 109.455 18" stroke="#FFB5AB" stroke-width="2" stroke-linecap="round" stroke-linejoin="round"/>
<path d="M131.859 12.94C131.16 14.1639 125.136 24.3666 129.869 21.1211C130.688 20.5592 139.9 16.2791 138.382 14.93C135.029 11.9496 126.046 12.3733 121.688 11.1711C116.394 9.71084 125.124 14.5849 126.442 15.7039C129.72 18.4875 134.093 21.9401 136.06 25.875C137.766 29.2858 137.005 23.9915 136.613 22.6689C134.594 15.8552 134.844 8.12417 134.844 1" stroke="#FFB5AB" stroke-width="2" stroke-linecap="round" stroke-linejoin="round"/>
</svg>
