<svg width="361" height="77" viewBox="0 0 361 77" fill="none" xmlns="http://www.w3.org/2000/svg">
<path d="M136.57 74.2738C135.674 74.2738 134.874 74.0498 134.17 73.6018C133.466 73.1431 132.912 72.4818 132.506 71.6178C132.101 70.7431 131.898 69.7084 131.898 68.5138C131.898 67.3191 132.101 66.2898 132.506 65.4258C132.912 64.5511 133.466 63.8898 134.17 63.4418C134.874 62.9831 135.674 62.7538 136.57 62.7538C137.466 62.7538 138.266 62.9831 138.97 63.4418C139.685 63.8898 140.245 64.5511 140.65 65.4258C141.056 66.2898 141.258 67.3191 141.258 68.5138C141.258 69.7084 141.056 70.7431 140.65 71.6178C140.245 72.4818 139.685 73.1431 138.97 73.6018C138.266 74.0498 137.466 74.2738 136.57 74.2738ZM136.57 72.4658C137.37 72.4658 138 72.1351 138.458 71.4738C138.928 70.8124 139.162 69.8258 139.162 68.5138C139.162 67.2018 138.928 66.2151 138.458 65.5538C138 64.8924 137.37 64.5618 136.57 64.5618C135.781 64.5618 135.152 64.8924 134.682 65.5538C134.224 66.2151 133.994 67.2018 133.994 68.5138C133.994 69.8258 134.224 70.8124 134.682 71.4738C135.152 72.1351 135.781 72.4658 136.57 72.4658ZM148.392 67.2018C149.128 67.2018 149.789 67.3458 150.376 67.6338C150.963 67.9111 151.421 68.3111 151.752 68.8338C152.083 69.3564 152.248 69.9591 152.248 70.6418C152.248 71.3671 152.067 72.0071 151.704 72.5618C151.341 73.1058 150.851 73.5271 150.232 73.8258C149.613 74.1244 148.92 74.2738 148.152 74.2738C146.616 74.2738 145.421 73.7938 144.568 72.8338C143.725 71.8738 143.304 70.4978 143.304 68.7058C143.304 67.4471 143.533 66.3751 143.992 65.4898C144.451 64.5938 145.091 63.9164 145.912 63.4578C146.744 62.9884 147.704 62.7538 148.792 62.7538C149.368 62.7538 149.907 62.8178 150.408 62.9458C150.92 63.0631 151.363 63.2391 151.736 63.4738L150.968 65.0418C150.413 64.6791 149.704 64.4978 148.84 64.4978C147.763 64.4978 146.92 64.8284 146.312 65.4898C145.704 66.1511 145.4 67.1058 145.4 68.3538V68.3698C145.731 67.9858 146.152 67.6978 146.664 67.5058C147.176 67.3031 147.752 67.2018 148.392 67.2018ZM148.04 72.6418C148.691 72.6418 149.219 72.4711 149.624 72.1298C150.029 71.7778 150.232 71.3138 150.232 70.7378C150.232 70.1511 150.029 69.6871 149.624 69.3458C149.219 69.0044 148.675 68.8338 147.992 68.8338C147.32 68.8338 146.771 69.0151 146.344 69.3778C145.928 69.7404 145.72 70.1991 145.72 70.7538C145.72 71.2978 145.923 71.7511 146.328 72.1138C146.744 72.4658 147.315 72.6418 148.04 72.6418ZM154.229 68.8338H158.629V70.4978H154.229V68.8338ZM170.912 71.5698H168.928V74.1138H166.912V71.5698H160.768V70.1298L166.288 62.9138H168.512L163.312 69.8098H166.976V67.5538H168.928V69.8098H170.912V71.5698ZM180.156 62.9138V64.3058L175.804 74.1138H173.58L177.788 64.6738H173.388V66.5778H171.452V62.9138H180.156ZM185.859 62.7538C187.395 62.7538 188.584 63.2338 189.427 64.1938C190.28 65.1538 190.707 66.5298 190.707 68.3218C190.707 69.5804 190.477 70.6578 190.019 71.5538C189.56 72.4391 188.915 73.1164 188.083 73.5858C187.261 74.0444 186.307 74.2738 185.219 74.2738C184.643 74.2738 184.099 74.2151 183.587 74.0978C183.085 73.9698 182.648 73.7884 182.275 73.5538L183.043 71.9858C183.597 72.3484 184.307 72.5298 185.171 72.5298C186.248 72.5298 187.091 72.1991 187.699 71.5378C188.307 70.8764 188.611 69.9218 188.611 68.6738V68.6578C188.28 69.0418 187.859 69.3351 187.347 69.5378C186.835 69.7298 186.259 69.8258 185.619 69.8258C184.883 69.8258 184.221 69.6871 183.635 69.4098C183.048 69.1218 182.589 68.7164 182.259 68.1938C181.928 67.6711 181.763 67.0684 181.763 66.3858C181.763 65.6604 181.944 65.0258 182.307 64.4818C182.669 63.9271 183.16 63.5004 183.779 63.2018C184.397 62.9031 185.091 62.7538 185.859 62.7538ZM186.019 68.1938C186.691 68.1938 187.235 68.0124 187.651 67.6498C188.077 67.2871 188.291 66.8284 188.291 66.2738C188.291 65.7298 188.083 65.2818 187.667 64.9298C187.261 64.5671 186.696 64.3858 185.971 64.3858C185.32 64.3858 184.792 64.5618 184.387 64.9138C183.981 65.2551 183.779 65.7138 183.779 66.2898C183.779 66.8764 183.981 67.3404 184.387 67.6818C184.792 68.0231 185.336 68.1938 186.019 68.1938ZM201.124 62.9138V64.3058L196.772 74.1138H194.548L198.756 64.6738H194.356V66.5778H192.42V62.9138H201.124ZM202.429 68.8338H206.829V70.4978H202.429V68.8338ZM214.216 67.2018C214.952 67.2018 215.613 67.3458 216.2 67.6338C216.786 67.9111 217.245 68.3111 217.576 68.8338C217.906 69.3564 218.072 69.9591 218.072 70.6418C218.072 71.3671 217.89 72.0071 217.528 72.5618C217.165 73.1058 216.674 73.5271 216.056 73.8258C215.437 74.1244 214.744 74.2738 213.976 74.2738C212.44 74.2738 211.245 73.7938 210.392 72.8338C209.549 71.8738 209.128 70.4978 209.128 68.7058C209.128 67.4471 209.357 66.3751 209.816 65.4898C210.274 64.5938 210.914 63.9164 211.736 63.4578C212.568 62.9884 213.528 62.7538 214.616 62.7538C215.192 62.7538 215.73 62.8178 216.232 62.9458C216.744 63.0631 217.186 63.2391 217.56 63.4738L216.792 65.0418C216.237 64.6791 215.528 64.4978 214.664 64.4978C213.586 64.4978 212.744 64.8284 212.136 65.4898C211.528 66.1511 211.224 67.1058 211.224 68.3538V68.3698C211.554 67.9858 211.976 67.6978 212.488 67.5058C213 67.3031 213.576 67.2018 214.216 67.2018ZM213.864 72.6418C214.514 72.6418 215.042 72.4711 215.448 72.1298C215.853 71.7778 216.056 71.3138 216.056 70.7378C216.056 70.1511 215.853 69.6871 215.448 69.3458C215.042 69.0044 214.498 68.8338 213.816 68.8338C213.144 68.8338 212.594 69.0151 212.168 69.3778C211.752 69.7404 211.544 70.1991 211.544 70.7538C211.544 71.2978 211.746 71.7511 212.152 72.1138C212.568 72.4658 213.138 72.6418 213.864 72.6418ZM223.671 62.9138V74.1138H221.591V64.6578H219.223V62.9138H223.671ZM231.205 74.2738C230.309 74.2738 229.509 74.0498 228.805 73.6018C228.101 73.1431 227.546 72.4818 227.141 71.6178C226.735 70.7431 226.533 69.7084 226.533 68.5138C226.533 67.3191 226.735 66.2898 227.141 65.4258C227.546 64.5511 228.101 63.8898 228.805 63.4418C229.509 62.9831 230.309 62.7538 231.205 62.7538C232.101 62.7538 232.901 62.9831 233.605 63.4418C234.319 63.8898 234.879 64.5511 235.285 65.4258C235.69 66.2898 235.893 67.3191 235.893 68.5138C235.893 69.7084 235.69 70.7431 235.285 71.6178C234.879 72.4818 234.319 73.1431 233.605 73.6018C232.901 74.0498 232.101 74.2738 231.205 74.2738ZM231.205 72.4658C232.005 72.4658 232.634 72.1351 233.093 71.4738C233.562 70.8124 233.797 69.8258 233.797 68.5138C233.797 67.2018 233.562 66.2151 233.093 65.5538C232.634 64.8924 232.005 64.5618 231.205 64.5618C230.415 64.5618 229.786 64.8924 229.317 65.5538C228.858 66.2151 228.629 67.2018 228.629 68.5138C228.629 69.8258 228.858 70.8124 229.317 71.4738C229.786 72.1351 230.415 72.4658 231.205 72.4658ZM242.61 74.2738C241.714 74.2738 240.914 74.0498 240.21 73.6018C239.506 73.1431 238.952 72.4818 238.546 71.6178C238.141 70.7431 237.938 69.7084 237.938 68.5138C237.938 67.3191 238.141 66.2898 238.546 65.4258C238.952 64.5511 239.506 63.8898 240.21 63.4418C240.914 62.9831 241.714 62.7538 242.61 62.7538C243.506 62.7538 244.306 62.9831 245.01 63.4418C245.725 63.8898 246.285 64.5511 246.69 65.4258C247.096 66.2898 247.298 67.3191 247.298 68.5138C247.298 69.7084 247.096 70.7431 246.69 71.6178C246.285 72.4818 245.725 73.1431 245.01 73.6018C244.306 74.0498 243.506 74.2738 242.61 74.2738ZM242.61 72.4658C243.41 72.4658 244.04 72.1351 244.498 71.4738C244.968 70.8124 245.202 69.8258 245.202 68.5138C245.202 67.2018 244.968 66.2151 244.498 65.5538C244.04 64.8924 243.41 64.5618 242.61 64.5618C241.821 64.5618 241.192 64.8924 240.722 65.5538C240.264 66.2151 240.034 67.2018 240.034 68.5138C240.034 69.8258 240.264 70.8124 240.722 71.4738C241.192 72.1351 241.821 72.4658 242.61 72.4658Z" fill="#40494E"/>
<path d="M122.666 75.0547L120.319 70.5325C120.314 70.5351 119.003 71.178 118.943 71.2053C117.45 71.9281 114.41 66.001 115.87 65.2197L117.259 64.5368L114.93 60L113.526 60.6915C108.725 63.1905 116.348 77.9829 121.26 75.7422C121.34 75.7055 122.661 75.0573 122.666 75.0547Z" fill="#40494E"/>
<path d="M8.71922 23.94C9.59922 23.66 10.6592 23.42 11.8592 23.42H11.9792C11.1992 25.34 10.1592 26.76 9.01922 27.88C8.83922 26.82 8.71922 25.66 8.71922 24.42V23.94ZM4.99922 30.06C4.29922 30.06 3.97922 29.7 3.97922 28.96C3.97922 27.58 5.21922 25.82 6.95922 24.74C6.95922 26.26 7.13922 27.8 7.39922 29.2C6.51922 29.76 5.67922 30.06 4.99922 30.06ZM12.7192 20.54C12.6992 20.88 12.5992 21.46 12.4992 21.82C12.3192 21.8 12.1392 21.8 11.9392 21.8C10.9592 21.8 9.83922 21.96 8.77922 22.24C8.83922 21.5 8.89922 20.78 8.95922 20.1C11.3992 19.98 14.0392 19.72 16.0392 19.38L16.0192 17.54C13.9192 18.02 11.6592 18.28 9.17922 18.38C9.25922 17.9 9.33922 17.44 9.41922 17.06C9.47922 16.78 9.55922 16.42 9.65922 16.12L7.57922 16.06C7.59922 16.34 7.55922 16.76 7.53922 17.1L7.39922 18.44C7.03922 18.44 6.67922 18.44 6.31922 18.44C5.29922 18.44 3.55922 18.28 2.87922 18.18L2.93922 20.02C3.77922 20.08 5.31922 20.16 6.25922 20.16C6.55922 20.16 6.87922 20.16 7.21922 20.16C7.13922 21.02 7.05922 21.94 7.01922 22.86C4.27922 24.12 2.09922 26.78 2.09922 29.32C2.09922 31.16 3.21922 32 4.59922 32C5.65922 32 6.79922 31.6 7.81922 31.04C7.89922 31.38 7.99922 31.7 8.09922 32L9.91922 31.46C9.75922 30.98 9.59922 30.46 9.45922 29.92C11.0592 28.56 12.6392 26.44 13.7392 23.68C15.3792 24.2 16.2392 25.42 16.2392 26.78C16.2392 29.08 14.3192 30.96 10.6392 31.36L11.6992 33.02C16.3992 32.28 18.1992 29.7 18.1992 26.88C18.1992 24.64 16.6992 22.84 14.2992 22.12C14.4192 21.76 14.5592 21.28 14.6792 21.02L12.7192 20.54ZM39.2258 21.34C38.2458 20.62 35.9058 19.3 34.4858 18.68L33.4858 20.22C34.8258 20.82 37.0058 22.08 38.1058 22.98L39.2258 21.34ZM31.9058 18.3C31.0058 18.58 30.0258 18.82 29.0258 18.98C29.3258 17.86 29.5858 16.76 29.7458 16.08L27.5658 15.88C27.5258 16.92 27.2858 18.14 26.9858 19.24C26.2858 19.3 25.6058 19.32 24.9458 19.32C24.1458 19.32 23.2058 19.28 22.4258 19.2L22.5658 21.04C23.3658 21.1 24.1858 21.12 24.9458 21.12C25.4258 21.12 25.8858 21.1 26.3658 21.08C25.5058 23.32 23.8458 26.36 22.2258 28.3L24.1458 29.28C25.7658 27.1 27.4858 23.64 28.4458 20.86C29.7658 20.68 30.9858 20.42 31.9658 20.16L31.9058 18.3ZM32.7058 29.36C32.7058 30.38 32.2058 31.22 30.7258 31.22C29.3658 31.22 28.6858 30.64 28.6858 29.8C28.6858 29 29.5458 28.42 30.8658 28.42C31.5058 28.42 32.1258 28.5 32.6858 28.66C32.7058 28.94 32.7058 29.16 32.7058 29.36ZM32.4058 22.22C32.4458 23.52 32.5458 25.38 32.6258 26.94C32.0858 26.84 31.5458 26.8 30.9658 26.8C28.5058 26.8 26.8258 28.12 26.8258 29.98C26.8258 32.04 28.6858 33.02 30.9858 33.02C33.5858 33.02 34.6058 31.66 34.6058 29.98V29.44C35.7858 30.08 36.7858 30.94 37.5658 31.64L38.6258 29.94C37.6258 29.06 36.2258 28.06 34.5258 27.44C34.4658 26.32 34.4058 25.18 34.3858 24.54C34.3658 23.74 34.3458 23.06 34.4058 22.22H32.4058ZM51.0883 24.08C52.3083 23.94 53.5283 23.88 54.8283 23.88C56.0083 23.88 57.1883 24 58.1883 24.12L58.2483 22.22C57.1283 22.1 55.9283 22.04 54.7883 22.04C53.5083 22.04 52.1483 22.12 51.0883 22.24V24.08ZM52.4883 18.4C51.3483 18.68 50.1283 18.92 48.9283 19.08L49.1683 17.92C49.2483 17.52 49.4083 16.72 49.5483 16.22L47.1283 16.04C47.1683 16.48 47.1483 17.2 47.0683 17.84C47.0283 18.2 46.9283 18.72 46.8283 19.3C46.1283 19.36 45.4683 19.38 44.8483 19.38C44.0883 19.38 43.3883 19.34 42.4283 19.22L42.4683 21.18C43.1883 21.22 43.9083 21.26 44.8283 21.26C45.3283 21.26 45.8483 21.24 46.4083 21.22C46.2683 21.86 46.1083 22.52 45.9283 23.12C45.1883 25.9 43.7683 29.98 42.5683 32L44.7683 32.74C45.8483 30.5 47.1683 26.42 47.8883 23.62C48.1083 22.78 48.3283 21.9 48.5083 21.04C49.8683 20.88 51.2483 20.66 52.4883 20.38V18.4ZM49.9883 26.94C49.8283 27.76 49.6883 28.6 49.6883 29.42C49.6883 31.38 51.3483 32.44 54.5683 32.44C56.0683 32.44 57.3883 32.32 58.4883 32.16L58.5483 30.14C57.2483 30.38 55.8883 30.54 54.5883 30.54C52.0683 30.54 51.5883 29.74 51.5883 28.84C51.5883 28.36 51.7083 27.74 51.8683 27.12L49.9883 26.94ZM65.9447 28.84C65.1447 28.84 64.1247 27.8 64.1247 25.52C64.1247 23.08 66.2047 19.98 69.7647 19.4C69.5647 21.14 69.1847 22.94 68.6847 24.5C67.7647 27.56 66.8047 28.84 65.9447 28.84ZM71.2647 32.66C76.1047 31.98 78.7647 29.1 78.7647 24.96C78.7647 20.8 75.7447 17.48 70.9847 17.48C66.0247 17.48 62.1247 21.3 62.1247 25.7C62.1247 29 63.9247 31.22 65.8847 31.22C67.8647 31.22 69.5047 28.96 70.7047 24.92C71.2447 23.06 71.6047 21.14 71.8847 19.36C74.9247 19.74 76.6447 22 76.6447 24.88C76.6447 28.08 74.3847 29.92 71.8447 30.5C71.3647 30.62 70.7847 30.72 70.0847 30.78L71.2647 32.66ZM86.2248 30.58C85.5448 30.58 84.3848 29.9 84.3848 29.12C84.3848 28.32 85.3848 27.32 86.8248 26.62C86.8448 27.9 86.8848 29.04 86.8848 29.66C86.8848 30.32 86.6448 30.58 86.2248 30.58ZM88.6048 23.44C88.6048 22.74 88.6248 21.96 88.6448 21.16C90.0248 21 91.4848 20.76 92.6248 20.5L92.5848 18.54C91.5048 18.86 90.0848 19.14 88.6848 19.3C88.7248 18.6 88.7448 17.96 88.7648 17.48C88.7848 17 88.8448 16.34 88.8848 15.96H86.7248C86.7848 16.32 86.8448 17.1 86.8448 17.52C86.8448 17.88 86.8248 18.6 86.8248 19.5C86.3448 19.52 85.8848 19.54 85.4648 19.54C84.7448 19.54 83.9648 19.52 82.8448 19.38L82.9048 21.3C83.6848 21.38 84.6248 21.4 85.5048 21.4C85.8848 21.4 86.3248 21.38 86.8048 21.34C86.7848 22.08 86.7848 22.82 86.7848 23.52C86.7848 23.92 86.7848 24.34 86.7848 24.76C84.4448 25.78 82.4248 27.52 82.4248 29.2C82.4248 31.12 85.0648 32.68 86.7848 32.68C87.9448 32.68 88.7248 32.08 88.7248 29.98C88.7248 29.2 88.6648 27.54 88.6448 25.9C89.9648 25.48 91.3048 25.24 92.7048 25.24C94.5048 25.24 95.8848 26.08 95.8848 27.6C95.8848 29.28 94.4248 30.16 92.7648 30.46C92.0248 30.6 91.1848 30.6 90.3848 30.6L91.1048 32.6C91.8248 32.58 92.7048 32.52 93.6048 32.32C96.5248 31.62 97.8848 29.98 97.8848 27.62C97.8848 25.08 95.6648 23.5 92.7248 23.5C91.5248 23.5 90.0448 23.7 88.6048 24.12V23.44ZM93.9648 19.66C95.2048 20.32 97.5848 21.7 98.5448 22.58L99.5248 20.98C98.5248 20.2 96.3048 18.88 94.8448 18.14L93.9648 19.66ZM117.894 15.7C117.254 17.8 116.214 20.06 115.094 21.5C115.574 21.68 116.454 22.08 116.874 22.36C117.954 20.82 119.094 18.44 119.814 16.14L117.894 15.7ZM115.094 20.18C114.934 18.94 114.354 16.94 113.734 15.42L112.134 15.86C112.694 17.44 113.234 19.5 113.334 20.72L115.094 20.18ZM117.354 28.06C116.874 27.46 116.114 26.74 115.254 26C115.814 24.94 116.294 23.82 116.674 22.64L115.034 22.28C114.754 23.2 114.374 24.1 113.954 24.94C113.234 24.4 112.494 23.86 111.814 23.4L110.874 24.62C111.594 25.14 112.394 25.74 113.154 26.36C112.434 27.52 111.574 28.52 110.654 29.3C111.034 29.52 111.734 30.08 112.034 30.38C112.894 29.58 113.694 28.58 114.414 27.46C115.214 28.18 115.894 28.88 116.354 29.46L117.354 28.06ZM111.534 20.84C111.314 19.6 110.494 17.64 109.694 16.16L108.114 16.72C108.874 18.26 109.614 20.26 109.854 21.52L111.534 20.84ZM102.694 24.76C103.414 23.38 103.714 21.08 103.714 19.26L102.454 19.08C102.414 20.82 102.094 22.98 101.454 24.22L102.694 24.76ZM108.754 22.02C108.554 21.08 107.914 19.6 107.294 18.48L106.154 18.96V15.22H104.374V33.56H106.154V19.1C106.734 20.26 107.294 21.72 107.494 22.64L108.754 22.02ZM117.654 30.52H110.374V22.76H108.594V33.42H110.374V32.22H117.654V33.36H119.474V22.7H117.654V30.52ZM126.876 28.56C126.476 29.08 126.176 29.24 125.756 29.24C125.236 29.24 124.776 28.8 124.776 28.1C124.776 26.6 126.216 25.08 128.776 24.78C128.136 26.2 127.476 27.72 126.876 28.56ZM140.576 26.86C139.956 26.44 139.196 25.92 138.296 25.42C138.516 24.28 138.636 23.04 138.696 21.66L136.656 21.44C136.696 22.08 136.696 22.78 136.656 23.4C136.636 23.76 136.596 24.14 136.536 24.52C135.076 23.86 133.416 23.3 131.636 23.06C132.416 21.28 133.216 19.42 133.736 18.56C133.896 18.28 134.096 18.06 134.316 17.82L133.076 16.82C132.776 16.94 132.356 17.04 131.936 17.06C131.056 17.14 128.676 17.24 127.596 17.24C127.176 17.24 126.556 17.22 126.036 17.18L126.116 19.22C126.616 19.16 127.236 19.1 127.656 19.08C128.556 19.02 130.656 18.92 131.436 18.9C130.896 19.98 130.236 21.52 129.596 22.96C125.676 23.1 122.936 25.4 122.936 28.38C122.936 30.2 124.136 31.32 125.716 31.32C126.876 31.32 127.736 30.86 128.476 29.78C129.216 28.68 130.136 26.52 130.876 24.8C132.776 25 134.536 25.66 136.096 26.5C135.436 28.5 134.036 30.52 130.956 31.82L132.636 33.2C135.396 31.78 136.916 29.96 137.756 27.54C138.456 28.02 139.096 28.52 139.656 29.02L140.576 26.86ZM145.245 16.52C145.225 17.04 145.145 17.66 145.085 18.16C144.845 19.74 144.205 23.5 144.205 26.46C144.205 29.14 144.585 31.36 144.985 32.74L146.745 32.62C146.725 32.38 146.725 32.08 146.705 31.88C146.705 31.64 146.745 31.24 146.805 30.98C147.025 29.96 147.705 27.94 148.225 26.46L147.205 25.66C146.905 26.38 146.485 27.34 146.205 28.16C146.105 27.44 146.065 26.78 146.065 26.08C146.065 23.96 146.665 19.84 147.025 18.24C147.105 17.88 147.285 17.06 147.425 16.72L145.245 16.52ZM155.285 28.82C155.285 30.06 154.825 30.8 153.365 30.8C152.105 30.8 151.225 30.34 151.225 29.42C151.225 28.6 152.125 28.02 153.445 28.02C154.085 28.02 154.685 28.12 155.285 28.28V28.82ZM161.065 29.72C160.065 28.82 158.825 27.8 157.185 27.14C157.125 25.62 157.005 23.84 156.965 21.86C158.105 21.78 159.225 21.66 160.245 21.5V19.56C159.225 19.76 158.125 19.9 156.965 20C156.985 19.1 157.005 18.26 157.025 17.76C157.045 17.36 157.085 16.94 157.145 16.54H154.885C154.965 16.92 155.005 17.46 155.005 17.8C155.005 18.3 155.025 19.14 155.025 20.12C154.465 20.14 153.925 20.16 153.365 20.16C152.185 20.16 151.085 20.1 149.945 20L149.965 21.88C151.125 21.94 152.205 22 153.345 22C153.905 22 154.465 21.98 155.025 21.96C155.065 23.5 155.145 25.2 155.205 26.58C154.705 26.5 154.165 26.46 153.605 26.46C150.965 26.46 149.385 27.82 149.385 29.64C149.385 31.54 150.945 32.66 153.625 32.66C156.385 32.66 157.265 31.1 157.265 29.26V29.2C158.185 29.76 159.085 30.5 160.005 31.36L161.065 29.72ZM169.649 31.78C168.509 30.4 166.649 28.52 165.229 27.36L163.589 28.8C164.989 29.98 166.689 31.68 167.949 33.22L169.649 31.78ZM187.629 17.58C187.289 17.7 186.629 17.78 185.889 17.78H178.469C177.849 17.78 176.689 17.7 176.289 17.64V19.9C176.609 19.88 177.689 19.78 178.469 19.78H185.809C185.329 21.34 183.989 23.54 182.629 25.06C180.649 27.28 177.649 29.68 174.409 30.92L176.029 32.6C178.909 31.28 181.589 29.14 183.729 26.86C185.709 28.7 187.709 30.9 189.009 32.7L190.789 31.14C189.549 29.62 187.129 27.04 185.069 25.28C186.469 23.48 187.649 21.22 188.349 19.58C188.489 19.24 188.789 18.74 188.929 18.54L187.629 17.58ZM207.895 18.06C207.555 18.18 206.995 18.24 206.355 18.24H194.795C194.115 18.24 193.175 18.16 192.635 18.08V20.32C193.055 20.28 193.995 20.2 194.795 20.2H206.035C205.055 21.92 202.955 24.6 200.315 26.62C198.995 25.44 197.475 24.22 196.715 23.66L195.075 25C196.195 25.78 198.375 27.7 199.575 28.88C200.855 30.2 202.475 32 203.275 33.08L205.115 31.6C204.315 30.64 203.015 29.24 201.835 28.06C204.895 25.66 207.455 22.42 208.895 20.06C209.035 19.86 209.235 19.62 209.475 19.36L207.895 18.06ZM212.541 32.66C214.241 31.22 215.501 29.26 216.101 27.06C216.641 25.06 216.721 20.8 216.721 18.52C216.721 17.82 216.801 17.08 216.821 16.92H214.501C214.621 17.38 214.661 17.86 214.661 18.54C214.661 20.84 214.661 24.74 214.081 26.52C213.501 28.36 212.361 30.16 210.641 31.38L212.541 32.66ZM221.161 32.66C221.381 32.5 221.581 32.32 221.921 32.16C224.221 31 227.021 28.9 228.721 26.64L227.521 24.92C226.081 27.04 223.821 28.74 222.081 29.52V18.46C222.081 17.64 222.161 16.98 222.181 16.86H219.861C219.861 16.98 219.981 17.64 219.981 18.46V30.3C219.981 30.76 219.921 31.22 219.841 31.56L221.161 32.66ZM241.122 20.98V18.52C241.122 17.92 241.162 16.88 241.262 16.36H238.742C238.882 16.88 238.962 17.88 238.962 18.52V20.98H233.382C232.622 20.98 231.842 20.92 231.362 20.88V23.04C231.862 23 232.622 22.98 233.422 22.98H238.962C238.862 26.74 237.402 29.68 233.542 31.46L235.502 32.92C239.662 30.46 241.042 27.2 241.122 22.98H246.062C246.762 22.98 247.642 23 248.002 23.04V20.9C247.642 20.94 246.862 20.98 246.082 20.98H241.122ZM265.365 18.52C264.985 18.66 264.425 18.72 263.865 18.72H259.065C259.165 18.56 259.265 18.38 259.345 18.22C259.565 17.82 259.985 17.04 260.385 16.44L258.065 15.68C257.905 16.26 257.565 17.08 257.325 17.48C256.385 19.24 254.525 22.02 251.045 24.1L252.805 25.4C254.905 24 256.605 22.24 257.885 20.52H264.125C263.765 22.2 262.565 24.72 261.085 26.42C259.305 28.48 256.925 30.26 253.065 31.42L254.925 33.08C258.665 31.64 261.085 29.8 262.925 27.54C264.725 25.34 265.905 22.66 266.445 20.74C266.585 20.34 266.805 19.84 267.005 19.52L265.365 18.52ZM271.434 16.84C271.474 17.26 271.514 17.96 271.514 18.32V25.02C271.514 25.6 271.434 26.3 271.414 26.64H273.754C273.714 26.24 273.674 25.54 273.674 25.02V18.32C273.674 17.76 273.714 17.26 273.754 16.84H271.434ZM280.654 16.68C280.714 17.2 280.774 17.8 280.774 18.52V21.96C280.774 25.46 280.514 27.02 279.114 28.6C277.894 29.98 276.174 30.74 274.274 31.22L275.934 32.96C277.394 32.46 279.414 31.56 280.714 30.04C282.194 28.36 282.914 26.66 282.914 22.08V18.52C282.914 17.8 282.954 17.2 282.994 16.68H280.654ZM287.1 31C287.8 30.94 288.62 30.9 289.36 30.9H301.12C301.68 30.9 302.46 30.94 303.12 31V28.58C302.48 28.66 301.76 28.7 301.12 28.7H289.36C288.62 28.7 287.82 28.64 287.1 28.58V31ZM288.8 21.02C289.44 20.98 290.22 20.94 290.94 20.94H299.36C300.04 20.94 300.88 20.98 301.44 21.02V18.74C300.9 18.8 300.12 18.84 299.36 18.84H290.92C290.26 18.84 289.46 18.8 288.8 18.74V21.02ZM312.776 20.32L310.896 20.94C311.356 21.9 312.256 24.4 312.496 25.34L314.376 24.66C314.116 23.78 313.136 21.16 312.776 20.32ZM317.876 20.9C317.596 23.42 316.596 26.02 315.216 27.74C313.556 29.8 310.916 31.32 308.656 31.96L310.316 33.66C312.576 32.78 315.056 31.18 316.896 28.82C318.296 27.04 319.156 24.92 319.696 22.8C319.776 22.46 319.896 22.1 320.076 21.6L317.876 20.9ZM308.116 21.36L306.236 22.04C306.676 22.82 307.716 25.54 308.056 26.6L309.956 25.9C309.576 24.82 308.576 22.28 308.116 21.36ZM337.12 18.52C336.74 18.66 336.18 18.72 335.62 18.72H330.82C330.92 18.56 331.02 18.38 331.1 18.22C331.32 17.82 331.74 17.04 332.14 16.44L329.82 15.68C329.66 16.26 329.32 17.08 329.08 17.48C328.14 19.24 326.28 22.02 322.8 24.1L324.56 25.4C326.66 24 328.36 22.24 329.64 20.52H335.88C335.52 22.2 334.32 24.72 332.84 26.42C331.06 28.48 328.68 30.26 324.82 31.42L326.68 33.08C330.42 31.64 332.84 29.8 334.68 27.54C336.48 25.34 337.66 22.66 338.2 20.74C338.34 20.34 338.56 19.84 338.76 19.52L337.12 18.52ZM341.553 26.26L343.433 28.2C343.773 27.74 344.213 27.08 344.653 26.52C345.573 25.34 347.113 23.26 347.973 22.16C348.593 21.36 348.953 21.26 349.753 22.1C350.673 23.12 352.173 25.02 353.433 26.48C354.753 28 356.513 29.96 357.993 31.34L359.573 29.5C357.753 27.88 355.913 25.92 354.693 24.58C353.473 23.26 351.893 21.24 350.653 20C349.293 18.64 348.113 18.8 346.873 20.26C345.693 21.66 344.073 23.82 343.093 24.84C342.533 25.42 342.093 25.84 341.553 26.26Z" fill="#40494E"/>
<path fill-rule="evenodd" clip-rule="evenodd" d="M177.657 1.55087C177.62 0.999782 177.144 0.582435 176.593 0.618704C176.042 0.654972 175.625 1.13112 175.661 1.68221C175.768 3.3075 176.129 4.71371 176.463 5.98424L176.491 6.0877C176.819 7.33711 177.107 8.43218 177.184 9.59928C177.22 10.1504 177.697 10.5677 178.248 10.5314C178.799 10.4952 179.216 10.019 179.18 9.46794C179.09 8.10468 178.758 6.84224 178.441 5.64211L178.398 5.47572C178.063 4.2038 177.75 2.96429 177.657 1.55087ZM169.1 2.30571C169.524 1.95224 170.154 2.00971 170.508 2.43406C170.711 2.67753 170.931 2.93135 171.159 3.19311L171.159 3.19316C171.701 3.81731 172.283 4.48659 172.756 5.16822C173.459 6.18057 174.03 7.35222 174.125 8.79844C174.161 9.34954 173.744 9.82569 173.193 9.86196C172.642 9.89822 172.166 9.48088 172.129 8.92978C172.066 7.96554 171.691 7.14009 171.113 6.309C170.703 5.71871 170.241 5.18691 169.735 4.60543C169.49 4.32404 169.235 4.03101 168.971 3.71409C168.618 3.28973 168.675 2.65918 169.1 2.30571ZM163.326 6.73494C163.726 6.35428 164.359 6.37007 164.74 6.77021C166.221 8.32726 167.672 9.89382 169.091 11.5311C169.452 11.9485 169.407 12.58 168.99 12.9417C168.572 13.3034 167.941 13.2583 167.579 12.8409C166.188 11.2357 164.76 9.69366 163.291 8.14871C162.91 7.74857 162.926 7.1156 163.326 6.73494Z" fill="#FFB5AB"/>
<path fill-rule="evenodd" clip-rule="evenodd" d="M341.674 5.05159C342.198 5.22624 342.481 5.79256 342.306 6.3165C342.004 7.22308 341.632 8.06712 341.281 8.86273C341.194 9.06127 341.108 9.25679 341.024 9.44952C340.598 10.4338 340.219 11.3958 339.977 12.5005C339.859 13.0399 339.325 13.3812 338.786 13.2628C338.246 13.1444 337.905 12.6111 338.023 12.0716C338.308 10.7768 338.748 9.6746 339.189 8.65519C339.283 8.4372 339.377 8.22498 339.469 8.01622L339.469 8.01608L339.469 8.01601C339.815 7.23015 340.139 6.49346 340.409 5.68404C340.583 5.1601 341.15 4.87694 341.674 5.05159ZM349.378 8.04121C349.552 8.56515 349.269 9.13147 348.745 9.30612C347.843 9.60683 347.013 10.2439 346.161 11.0861C345.739 11.5036 345.331 11.9519 344.911 12.4148L344.851 12.4808L344.851 12.4808L344.851 12.4809C344.457 12.9162 344.049 13.3659 343.636 13.7789C343.245 14.1694 342.612 14.1694 342.222 13.7789C341.831 13.3884 341.831 12.7552 342.222 12.3647C342.599 11.9873 342.977 11.5708 343.381 11.1243L343.429 11.0715C343.846 10.6123 344.289 10.1253 344.755 9.66411C345.68 8.74888 346.774 7.85491 348.113 7.40876C348.637 7.23411 349.203 7.51727 349.378 8.04121ZM355.031 14.0205C355.555 13.8458 355.838 13.2795 355.663 12.7555C355.489 12.2316 354.922 11.9484 354.398 12.1231C353.656 12.3705 352.891 12.6111 352.115 12.8554C350.519 13.3575 348.875 13.8748 347.28 14.4974C346.765 14.6981 346.511 15.278 346.712 15.7925C346.912 16.307 347.492 16.5613 348.007 16.3605C349.542 15.7615 351.071 15.2808 352.627 14.7915L352.627 14.7914C353.42 14.5423 354.22 14.2909 355.031 14.0205Z" fill="#FFB5AB"/>
</svg>
