<svg width="242" height="52" fill="none" xmlns="http://www.w3.org/2000/svg"><g clip-path="url(#clip0)"><path d="M70.247 18.873c-1.539.569-2.255-1.497-.675-2.045 3.836-1.327 7.166-4.698 8.831-7.84.19-.358.106-.695-.358-.695-1.328-.021-4.236.084-6.09.126-1.266.042-1.349-1.981 0-2.044 1.538-.063 4.636-.105 6.765-.105 1.896 0 2.971 1.2 2.15 2.634a33.766 33.766 0 01-2.34 3.581c1.749 1.054 4.426 2.825 5.395 4.174.843 1.18-.738 2.824-1.728 1.579A21.953 21.953 0 0077.265 14a17.806 17.806 0 01-7.018 4.872zM99.194 16.11a1.243 1.243 0 01-.4 1.687 1.042 1.042 0 01-1.539-.358c-.759-1.202-3.267-3.373-4.974-4.174-1.16-.548-.148-2.36 1.328-1.601.905.46 1.779.98 2.613 1.559a30.999 30.999 0 004.342-3.372c.274-.274.443-.717-.19-.717-2.634-.02-7.777.063-11.044.19-1.58.063-1.728-2.087-.02-2.129 3.308-.063 8.493-.169 11.992-.105 1.896.021 3.266 1.623 1.981 3.077a28.23 28.23 0 01-5.332 4.426c.488.44.907.952 1.243 1.518zM106.943 16.64c3.119-1.392 4.995-4.637 4.805-8.663-.085-1.623 2.129-1.517 2.171-.169.147 3.984-1.665 8.368-5.796 10.665-1.623.905-2.782-1.118-1.18-1.833zm11.065.758c-1.371.675-2.867.127-2.719-1.686.147-1.897.295-6.913.295-8.156a1.05 1.05 0 01.629-1.057 1.055 1.055 0 011.478 1.057c-.021.821-.231 6.386-.253 7.102-.021.463.231.506.633.274 1.812-1.033 3.477-2.993 4.698-5.269a1.087 1.087 0 01.653-.572 1.1 1.1 0 011.203.37 1.098 1.098 0 01.062 1.256c-1.452 2.613-3.813 5.226-6.679 6.68v.001zM132.007 19.906c-1.771.696-2.361-1.39-.99-1.897 3.667-1.37 5.332-4.194 5.479-7.229-1.939.02-3.878.106-5.777.168-1.496.064-1.727-1.96-.062-2.023 1.875-.063 3.835-.105 5.815-.126-.021-1.223-.063-2.403-.084-3.12-.064-1.579 2.086-1.39 2.192-.147.105 1.243.084 2.255.084 3.245 1.686-.02 3.33-.02 4.911 0 .864.021 1.243.548 1.222 1.075-.021.528-.462 1.054-1.307 1.012a119.18 119.18 0 00-4.805-.084c-.123 3.9-2.357 7.419-6.678 9.126zM163.163 17.779a.767.767 0 01.533 1.291.767.767 0 01-.516.244c-1.99.05-3.979.067-5.952.067-1.602 0-3.187-.017-4.705-.05-1.466-.034-2.174-.793-2.225-2.042a106.646 106.646 0 01-.068-4.182c0-1.804.034-3.641.068-5.294.017-1.078.826-1.821 2.091-1.838 1.467-.034 3.254-.034 5.058-.034 1.821 0 3.659 0 5.227.034a.732.732 0 01.518 1.252.732.732 0 01-.518.215 958.158 958.158 0 00-6.98-.034c-.978 0-1.872 0-2.597.017-.963.017-1.214.287-1.232 1.147a167.338 167.338 0 00-.051 4.13c0 1.366.017 2.715.051 3.98.033.963.37 1.113 1.399 1.147 1.012.016 2.141.033 3.338.033 2.058 0 4.317-.033 6.543-.084h.018zm-1.197-4.653l-3.406-.051a6.633 6.633 0 003.457 2.63.835.835 0 01.606.793.794.794 0 01-.235.568.786.786 0 01-.573.224c-.945 0-3.221-1.551-4.233-3.372a6.186 6.186 0 01-4.502 3.456.748.748 0 01-.118-1.484c1.99-.505 2.968-1.635 3.423-2.832l-3.186.068h-.017a.636.636 0 01-.632-.398.642.642 0 01-.043-.26.665.665 0 01.423-.646.67.67 0 01.268-.047h3.49l.05-.506c.018-.337.018-.742.018-1.147h-1.669c-.826 1.233-1.147 1.315-1.433 1.315a.751.751 0 01-.793-.64.565.565 0 01.186-.405 6.907 6.907 0 001.568-2.479.595.595 0 01.59-.37.785.785 0 01.826.674 1.8 1.8 0 01-.202.573h5.073a.668.668 0 01.461 1.132.668.668 0 01-.461.2h-2.58c0 .552-.028 1.104-.084 1.652h3.726a.674.674 0 01.017 1.348l-.015.004zM171.886 19.23a.838.838 0 01-1.371.508.843.843 0 01-.282-.508v-.016l.068-5.362a17.024 17.024 0 01-1.855 2.41.91.91 0 01-.641.304.864.864 0 01-.86-.792.75.75 0 01.287-.573 16.033 16.033 0 003.085-4.014l-.016-.353-1.973.05h-.017a.692.692 0 01-.742-.725.727.727 0 01.217-.538.712.712 0 01.542-.204h1.956l-.034-1.669c-.32.05-1.45.253-1.635.253a.743.743 0 01-.551-.213.748.748 0 01-.225-.546.713.713 0 01.675-.725 14.03 14.03 0 004.181-.995.849.849 0 01.27-.05.77.77 0 01.759.775c0 .59-.641.809-1.855 1.147-.017.354-.017 1.113-.034 2.023h1.72a.718.718 0 01.707.45.727.727 0 01.052.292.713.713 0 01-.211.526.711.711 0 01-.531.2h-.017l-1.754-.035v.826a.647.647 0 01.169-.016c.624 0 2.006 1.214 2.091 1.315a.81.81 0 01-.083 1.218.808.808 0 01-.423.165.702.702 0 01-.539-.287 6.374 6.374 0 00-1.214-1.096c.017 2.546.084 6.239.084 6.239v.016zm6.525-3.827l-4.031 1.13a.78.78 0 01-.269.033.695.695 0 01-.708-.725.754.754 0 01.573-.725l4.434-1.248-.033-7.992a.725.725 0 01.792-.724.764.764 0 01.827.724l-.034 7.57 1.652-.471c.078-.018.157-.03.236-.034a.745.745 0 01.725.759.686.686 0 01-.539.674l-2.074.573.034 4.334c0 .438-.405.657-.809.657s-.809-.219-.809-.657l.033-3.878zm-2.226-2.563a8.986 8.986 0 00-1.551-1.197.606.606 0 01-.337-.523.767.767 0 01.826-.674c.59 0 1.804.877 2.108 1.18a.895.895 0 01.286.64.82.82 0 01-.775.844.792.792 0 01-.557-.27zm.135-3.575a7.113 7.113 0 00-1.45-1.365.556.556 0 01-.27-.439.833.833 0 01.843-.708c.456 0 2.243 1.147 2.243 1.99a.837.837 0 01-.776.86.754.754 0 01-.59-.338zM186.318 9.923a.698.698 0 01-.728-.7.7.7 0 01.728-.7h2.042V6.569a.755.755 0 01.241-.571.764.764 0 01.585-.205.774.774 0 01.826.776v1.956l2.157.016V5.69a.79.79 0 01.222-.591.779.779 0 01.587-.235.811.811 0 01.843.826v.523h3.557a.65.65 0 01.674.693.652.652 0 01-.409.644.657.657 0 01-.265.048h-3.557v.944l5.665-.017a.7.7 0 010 1.4l-13.168-.002zm1.923 1.147a149.432 149.432 0 00-.051 4.063c0 .725 0 1.416.017 1.956.017.64.219.995.962 1.029.928.033 2.277.05 3.609.05 1.332 0 2.647-.017 3.54-.05a.955.955 0 00.948-.603.938.938 0 00.064-.393c.034-.693.034-1.55.034-2.426 0-1.232-.017-2.529-.067-3.574v-.05a.694.694 0 01.222-.522.705.705 0 01.536-.187.779.779 0 01.826.759c.034.927.051 2.495.051 4.013 0 .792 0 1.585-.017 2.242-.034 1.383-1.028 2.09-2.192 2.125-1.096.033-2.613.05-4.114.05-1.484 0-2.934-.017-3.912-.05-1.281-.05-1.989-.76-2.006-2.108-.017-.775-.017-1.617-.017-2.512 0-1.265.017-2.58.05-3.81a.73.73 0 01.204-.543.72.72 0 01.538-.217.734.734 0 01.776.743l-.001.015zm5.344 6.087a.642.642 0 01-.22.463.66.66 0 01-.488.16.637.637 0 01-.691-.623v-.016l.051-2.125c-1.079 1.315-2.496 2.36-2.9 2.36a.753.753 0 01-.709-.742.595.595 0 01.321-.523 11.216 11.216 0 002.782-2.242l-2.462.068h-.017a.596.596 0 01-.572-.397.595.595 0 01-.035-.244.578.578 0 01.171-.436.583.583 0 01.436-.17h.017l1.248.016a6.005 6.005 0 00-.776-.978.59.59 0 01-.151-.388.641.641 0 01.623-.607c.573 0 1.568 1.484 1.568 1.887v.102h.456l-.051-1.787a.65.65 0 01.187-.505.63.63 0 01.504-.187.67.67 0 01.708.657v.035l-.067 1.787h.489c.291-.52.545-1.061.759-1.618a.542.542 0 01.523-.388.766.766 0 01.741.709c0 .32-.623 1.23-.657 1.28l.944-.016h.017a.612.612 0 01.59.657.56.56 0 01-.346.552.552.552 0 01-.227.039h-.034l-2.816-.085.017.675a.652.652 0 01.455-.185c.32 0 2.681.96 2.681 1.938a.722.722 0 01-.657.742.64.64 0 01-.49-.252 7.026 7.026 0 00-1.82-1.383 1.27 1.27 0 01-.152-.101l.05 1.855v.016zM208.323 19.23a.831.831 0 01-.826.708.834.834 0 01-.826-.708v-.016l.067-5.362a17.115 17.115 0 01-1.854 2.41.923.923 0 01-.641.304.867.867 0 01-.86-.792.75.75 0 01.287-.573 16.04 16.04 0 003.085-4.014l-.017-.353-1.973.05h-.016a.69.69 0 01-.695-.438.687.687 0 01-.047-.287.726.726 0 01.216-.538.712.712 0 01.542-.204h1.956l-.033-1.669c-.321.05-1.45.253-1.636.253a.746.746 0 01-.719-.463.752.752 0 01-.057-.296.718.718 0 01.675-.725 14.026 14.026 0 004.181-.995.852.852 0 01.27-.05.77.77 0 01.759.775c0 .59-.641.809-1.855 1.147-.017.354-.017 1.113-.034 2.023h1.72a.723.723 0 01.759.742.697.697 0 01-.211.526.7.7 0 01-.531.2h-.017l-1.754-.035v.826a.647.647 0 01.169-.016c.624 0 2.007 1.214 2.091 1.315a.811.811 0 01-.083 1.218.81.81 0 01-.423.165.699.699 0 01-.539-.287 6.367 6.367 0 00-1.214-1.096c.017 2.546.084 6.239.084 6.239v.016zm6.525-3.827l-4.029 1.13a.786.786 0 01-.27.033.692.692 0 01-.708-.725.755.755 0 01.573-.725l4.435-1.248-.034-7.992a.726.726 0 01.792-.725.765.765 0 01.827.725l-.034 7.57 1.653-.471c.077-.018.156-.03.235-.034a.745.745 0 01.726.759.693.693 0 01-.54.674l-2.074.574.034 4.333c0 .438-.404.657-.808.657s-.809-.219-.809-.657l.031-3.878zm-2.225-2.563a8.945 8.945 0 00-1.552-1.197.605.605 0 01-.337-.523.767.767 0 01.826-.674c.591 0 1.805.877 2.108 1.18a.88.88 0 01.287.64.82.82 0 01-.776.844.794.794 0 01-.556-.27zm.135-3.575a7.115 7.115 0 00-1.45-1.365.555.555 0 01-.27-.439.833.833 0 01.843-.708c.456 0 2.243 1.147 2.243 1.99a.837.837 0 01-.776.86.75.75 0 01-.59-.338zM72.354 41.496c-1.623.8-3.78.315-3.708-2.254.073-2.763.122-8.652.049-10.275-.073-1.867 2.496-1.673 2.544-.049.049 1.72-.024 7.149-.096 8.991-.025.679.606.92 1.187.606a24.585 24.585 0 008.749-7.998c1.018-1.623 3.199-.097 2.23 1.406-1.94 3.03-6.859 7.537-10.955 9.573zM91.546 42.03c-2.066.717-2.403-1.54-.928-1.939 3.35-.906 5.206-3.477 5.353-6.618-2.339.022-4.657.085-6.133.127a.963.963 0 01-1.096-.949c0-.506.38-1.032 1.201-1.032 2.994-.042 9.632-.084 13.068-.105a.934.934 0 011.033 1.01 1.032 1.032 0 01-1.16.949c-1.138-.042-2.866-.042-4.72-.02-.19 3.814-2.445 7.123-6.618 8.577zm.758-12.666c-1.579 0-1.475-2.003.021-1.982 2.656.021 4.532-.063 7.293-.126a.963.963 0 011.075.97.985.985 0 01-.279.717.989.989 0 01-.712.294c-2.908.042-5.142.127-7.398.127zm10.538.462a7.136 7.136 0 00-1.412-1.581c-.948-.674.106-1.707.991-1.16a6.765 6.765 0 011.792 1.687c.632 1.034-.865 2.003-1.371 1.055v-.001zm2.614-1.286a14.466 14.466 0 00-1.474-1.516c-.969-.632.042-1.728.948-1.201a6.97 6.97 0 011.834 1.622.854.854 0 01-.729 1.398.851.851 0 01-.579-.302zM108.681 39.398c-.759.462-1.412.316-1.728-.127a.919.919 0 01.4-1.37c2.803-1.37 5.691-4.173 7.419-6.893.801-1.265 2.465-.085 1.665 1.011a45.055 45.055 0 01-1.981 2.487c-.042 1.623-.085 5.544-.042 7.06a1.013 1.013 0 01-.554 1.015c-.124.06-.258.096-.395.103a.98.98 0 01-1.012-1.075c.022-1.138.085-3.372.106-5.122a23.264 23.264 0 01-3.878 2.91zM122.945 34.696a1.016 1.016 0 01-1.117-1.01 1.07 1.07 0 01.33-.776 1.065 1.065 0 01.787-.3h13.236a1.045 1.045 0 110 2.086h-13.236zM141.727 41.272c-1.538.569-2.255-1.496-.675-2.044 3.837-1.328 7.167-4.699 8.832-7.84.189-.36.105-.697-.358-.697-1.328-.02-4.237.085-6.092.127-1.264.042-1.347-1.981 0-2.045 1.541-.063 4.637-.105 6.766-.105 1.897 0 2.971 1.202 2.15 2.635a33.814 33.814 0 01-2.34 3.581c1.75 1.054 4.426 2.825 5.396 4.173.843 1.18-.738 2.825-1.728 1.58a21.951 21.951 0 00-4.932-4.237 17.814 17.814 0 01-7.019 4.872zM169.087 28.73c.861-.06 1.842-.14 2.643-.18 1.54-.08 2.883 1.001 2.142 2.422-2.443 4.665-5.205 8.729-10.831 10.95-1.702.661-2.522-1.3-.861-1.881 4.445-1.54 7.748-5.546 9.23-8.949.16-.38 0-.76-.481-.74-.841.02-2.302.16-3.203.26-1.362 1.802-3.123 3.904-4.506 4.845-1.341.9-2.523-.822-1.161-1.662 1.922-1.181 4.524-4.865 5.445-6.446.661-1.122 2.662-.16 1.722 1.18l-.139.201zM180.56 35.898a.982.982 0 01-1.04-1.021c.12-1.983.06-5.126-.038-7.027-.06-1.242 2.002-1.342 2.082-.08.1 1.801.1 5.225.06 7.086a1.041 1.041 0 01-.311.746 1.033 1.033 0 01-.753.296zm.16 4.844c3.543-1.962 4.344-4.644 4.344-7.628 0-1.561-.1-4.043-.1-5.625 0-1.301 2.162-1.221 2.143 0-.041 1.702.059 3.944.059 5.606 0 3.443-1.039 6.906-5.184 9.288-1.642.941-2.523-.94-1.262-1.641zM193.612 39.52c-1.281.038-1.422-2.063 0-2.083 3.323-.06 9.628-.06 13.012.02 1.502.039 1.162 2.122-.019 2.082-3.824-.12-9.41-.12-12.993-.02zm2.322-6.707a1.008 1.008 0 01-1.019-1.067.999.999 0 01.365-.716 1.008 1.008 0 01.774-.22c2.182.06 5.486.06 7.868 0 1.261-.039 1.361 1.962-.101 2.003-2.102.04-5.805.04-7.887 0zM213.771 36.375a5.245 5.245 0 00-1.14-1.54c-.821-.7.34-1.962 1.281-1.121a7.559 7.559 0 011.481 1.782c.641 1.08-1.021 2.06-1.622.88zm-.4 5.426a.899.899 0 01-.011-.71.891.891 0 01.512-.492 10.713 10.713 0 006.306-7.567c.32-1.301 2.262-.7 1.882.52-1.141 3.784-3.363 6.847-7.307 8.627-.681.302-1.182.062-1.382-.378zm3.083-6.527a5.287 5.287 0 00-.941-1.681c-.72-.801.621-1.902 1.441-.921.489.603.893 1.27 1.202 1.982a.914.914 0 01.014.73.903.903 0 01-.528.505.908.908 0 01-1.188-.615zM235.653 28.73c.861-.06 1.842-.14 2.642-.18 1.541-.08 2.883 1.001 2.143 2.422-2.443 4.665-5.205 8.729-10.831 10.95-1.701.661-2.522-1.3-.861-1.881 4.445-1.54 7.748-5.546 9.229-8.949.16-.38 0-.76-.48-.74-.841.02-2.302.16-3.203.26-1.362 1.802-3.124 3.904-4.506 4.845-1.341.9-2.522-.822-1.161-1.662 1.922-1.181 4.525-4.865 5.445-6.446.661-1.122 2.663-.16 1.722 1.18l-.139.201zM220.162 49.926a2.059 2.059 0 011.278-1.887 2.052 2.052 0 11.773 3.954 1.972 1.972 0 01-1.921-1.265 1.995 1.995 0 01-.13-.802zm3.478 0a1.43 1.43 0 10-.861 1.393 1.426 1.426 0 00.862-1.393h-.001zM226.652 51.996c-.869 0-1.316-.496-1.316-.756a.31.31 0 01.308-.304.287.287 0 01.234.133.915.915 0 00.778.357c.586 0 .714-.4.714-.57a.702.702 0 00-.405-.596 10.279 10.279 0 00-.804-.421 1.019 1.019 0 01.468-1.971c.736 0 1.156.351 1.156.602a.31.31 0 01-.298.308.341.341 0 01-.251-.128.779.779 0 00-.613-.245.485.485 0 00-.371.109.503.503 0 00-.177.344.552.552 0 00.336.468c.218.116.586.288.831.42a1.266 1.266 0 01.756 1.093 1.232 1.232 0 01-1.346 1.157zM232.031 51.943a.31.31 0 01-.303-.197c-.065-.154-.203-.58-.368-1.076-.01-.032-.027-.048-.058-.048-.086-.005-.304-.005-.544-.005-.319 0-.676 0-.788.005a.07.07 0 00-.04.014.07.07 0 00-.024.034c-.133.421-.256.804-.335 1.06a.304.304 0 01-.298.218.285.285 0 01-.304-.266c0-.096.016-.139 1.182-3.42a.493.493 0 01.469-.356.528.528 0 01.495.368c.341.958 1.033 2.811 1.209 3.227a.43.43 0 01.032.154.314.314 0 01-.029.117.316.316 0 01-.072.096.311.311 0 01-.224.075zm-.889-1.933l-.411-1.246c-.031-.096-.058-.15-.09-.15-.032 0-.059.048-.096.155-.079.212-.426 1.208-.426 1.256 0 .022.011.032.043.032.107 0 .304.006.49.006.192 0 .378-.006.453-.006.032 0 .042-.005.042-.021a.048.048 0 00-.005-.026zM233.543 51.686c.011-.564.016-1.267.016-1.933 0-.596-.005-1.16-.016-1.565a.272.272 0 01.086-.214.275.275 0 01.218-.074.282.282 0 01.214.072.278.278 0 01.094.205v.01c-.005.214-.01.421-.01.607 0 .288.005.522.01.655 0 .048.011.107.139.107a.366.366 0 00.288-.154c.385-.416 1.001-1.098 1.219-1.385a.266.266 0 01.218-.112.358.358 0 01.347.325c0 .06-.021.118-.058.165-.235.288-.886.938-1.257 1.331a.126.126 0 00-.048.086c.005.031.022.06.048.08.452.462 1.427 1.39 1.518 1.49a.328.328 0 01.09.22.372.372 0 01-.357.35.33.33 0 01-.239-.106 56.534 56.534 0 01-1.47-1.603.267.267 0 00-.224-.106c-.038 0-.069.005-.112.005s-.101.005-.101.085a23.573 23.573 0 000 1.46v.011c0 .171-.149.25-.303.25a.277.277 0 01-.309-.255l-.001-.007zM240.762 51.943a.315.315 0 01-.304-.197c-.064-.154-.202-.58-.368-1.076a.057.057 0 00-.058-.048c-.086-.005-.304-.005-.543-.005-.32 0-.677 0-.788.005a.065.065 0 00-.04.013.064.064 0 00-.024.035c-.134.421-.256.804-.336 1.06a.304.304 0 01-.298.218.286.286 0 01-.304-.266c0-.096.016-.139 1.183-3.42a.492.492 0 01.468-.356.528.528 0 01.495.368c.341.958 1.033 2.811 1.209 3.227a.408.408 0 01.032.154.3.3 0 01-.324.288zm-.89-1.933l-.41-1.246c-.032-.096-.059-.15-.091-.15s-.058.048-.095.155c-.08.212-.426 1.208-.426 1.256 0 .022.01.032.042.032.107 0 .304.006.49.006.187 0 .378-.006.453-.006.032 0 .042-.005.042-.021a.047.047 0 00-.005-.026z" fill="#1A1A1A"/><path opacity=".8" d="M30.249 10.155a15.82 15.82 0 11-15.82 15.82 15.838 15.838 0 0115.82-15.82zm0-5.546a21.366 21.366 0 100 42.733 21.366 21.366 0 000-42.733z" fill="#1A1A1A"/><path opacity=".5" d="M4.273 8.547a4.273 4.273 0 100-8.547 4.273 4.273 0 000 8.547z" fill="#1A1A1A"/><path opacity=".3" d="M13.155 51.616c7.08 0 12.82-5.74 12.82-12.82s-5.74-12.82-12.82-12.82-12.82 5.74-12.82 12.82 5.74 12.82 12.82 12.82z" fill="#1A1A1A"/></g><defs><clipPath id="clip0"><path fill="#fff" d="M0 0h241.087v52H0z"/></clipPath></defs></svg>