<svg width="259" height="183" viewBox="0 0 259 183" fill="none" xmlns="http://www.w3.org/2000/svg">
<path d="M67.8441 86.1655C64.4787 76.9189 54.8883 73.2582 44.6644 76.9794C29.1783 82.6159 25.0204 98.0912 30.8484 114.104C31.1494 114.931 32.0996 115.436 33.0017 115.108C33.9038 114.779 34.3068 113.781 34.0058 112.954C28.9713 99.1221 32.159 85.1918 45.0892 80.4856C53.8847 77.2842 61.7044 79.1205 64.6868 87.3146C67.7513 95.7343 65.3213 106.835 56.6762 109.981C54.7216 110.693 52.4525 111.008 50.074 111.022C49.8211 111.029 49.6708 111.084 49.4452 111.166C48.6935 111.44 48.1333 112.239 48.489 113.217C48.7352 113.893 49.33 114.358 50.0886 114.337C52.7474 114.391 55.2694 114.069 57.5998 113.221C68.1996 109.363 71.7295 96.8404 67.8441 86.1655ZM47.0056 89.4933C47.3331 87.5863 48.2687 84.7769 50.1412 83.84C50.763 83.4434 51.3984 82.6162 50.8103 81.4681C50.4615 80.7437 49.443 80.5184 48.6913 80.7921C46.3608 81.6403 44.0655 85.6257 43.7043 89.0774C43.0564 94.0807 43.5028 101.155 43.963 108.734C45.1166 126.874 46.1193 143.195 36.0458 146.862C31.8359 148.394 27.3177 146.973 25.6486 142.388C24.0616 138.028 25.8985 132.081 30.0331 130.576C30.4842 130.412 30.9352 130.248 31.3658 130.261C32.4525 130.206 33.2314 129.071 32.8483 128.019C32.3284 126.59 30.613 126.789 29.0343 127.364C23.0954 129.525 20.1381 137.072 22.546 143.687C24.7623 149.777 30.9554 152.29 37.1198 150.046C50.3506 145.231 48.3693 124.583 47.3461 108.439C46.8177 101.14 46.4261 94.2164 47.0056 89.4933ZM77.5283 85.5353C78.9566 85.0154 79.6738 83.4774 79.1539 82.049C78.6341 80.6207 77.096 79.9035 75.6677 80.4234C74.2393 80.9432 73.447 82.5086 73.9668 83.937C74.4867 85.3653 76.0999 86.0552 77.5283 85.5353ZM90.3153 105.23C90.0624 105.236 89.8847 105.216 89.6591 105.298C89.0577 105.517 88.5931 106.112 88.5113 106.823C87.9735 113.999 87.3337 123.001 82.6728 124.698C81.0941 125.272 80.0618 124.541 79.2683 122.361C78.0918 119.128 78.1863 115.178 78.0086 92.0009C77.9945 90.5588 76.7436 90.1627 75.7663 90.5184C75.1649 90.7373 74.7003 91.3321 74.7211 92.0907C74.5326 101.865 74.2023 117.564 76.111 123.51C77.2193 127.023 80.2136 129.168 83.822 127.855C90.1367 125.557 91.2549 116.466 91.9083 107.034C91.9014 106.781 91.8945 106.528 91.8124 106.302C91.5935 105.701 90.9987 105.236 90.3153 105.23ZM114.115 96.5671C113.179 96.5673 112.414 97.2716 112.311 98.1601C111.699 108.173 108.954 115.132 101.662 117.786C98.0532 119.1 94.6078 117.118 93.0756 112.909C89.7922 103.888 93.0477 87.8042 98.9114 85.67C101.167 84.8491 102.609 85.7714 103.567 88.4025C104.661 91.4095 103.322 93.3442 103.705 94.3967C104.061 95.3739 104.854 95.6813 105.831 95.3256C107.56 94.6963 107.955 90.6362 106.724 87.2533C105.219 83.1187 102.047 80.953 97.7622 82.5126C90.0943 85.3035 85.6225 102.255 89.8909 113.983C92.1345 120.147 97.2478 122.968 102.736 120.971C111.456 117.797 114.844 110.264 115.708 98.371C115.701 98.1181 115.722 97.9404 115.64 97.7149C115.421 97.1135 114.826 96.6489 114.115 96.5671ZM115.735 114.962C115.82 99.5224 115.651 85.0257 115.488 64.2273C115.508 63.1132 114.346 62.2592 113.143 62.697C112.542 62.9159 112.077 63.5107 112.07 64.1941C112.098 66.1421 112.204 75.5536 112.372 115.08C112.373 116.016 113.152 116.754 114.089 116.754C114.998 116.678 115.708 115.824 115.735 114.962ZM143.838 85.7488C143.585 85.7557 143.333 85.7626 143.107 85.8447C142.506 86.0636 142.116 86.631 142.034 87.3418C141.531 94.8466 140.631 103.602 136.196 105.217C134.617 105.791 133.27 104.664 132.778 103.311C132.149 101.582 130.869 95.4923 130.239 93.7632C128.988 90.558 127.08 88.3578 123.328 89.0424L131.723 73.0463C131.915 72.6362 132.003 72.1782 131.839 71.7272C131.62 71.1258 130.738 70.34 129.611 70.7504C129.235 70.8872 129.009 70.9693 128.695 71.5094C122.035 84.3199 117.335 92.9263 116.713 94.2593C115.996 95.7974 116.974 97.3144 118.628 96.7125C120.056 96.1926 120.363 93.5269 122.543 92.7334C125.099 91.8031 126.295 92.9852 127.082 94.9124C127.65 96.2382 127.999 97.899 128.32 99.4846C128.724 101.296 129.101 103.032 129.703 104.685C130.742 107.542 133.887 109.633 137.345 108.374C143.585 106.103 144.751 96.9098 145.431 87.5527C145.425 87.2998 145.418 87.0469 145.336 86.8214C145.117 86.22 144.522 85.7554 143.838 85.7488ZM196.562 66.5591C196.309 66.566 196.056 66.5729 195.83 66.655C195.229 66.8739 194.764 67.4686 194.758 68.1521C193.975 79.3342 192.603 84.6863 188.994 85.9997C187.416 86.5743 186.383 85.8432 185.59 83.6631C184.851 81.6334 184.364 74.9149 184.402 66.1321C184.435 62.7146 184.386 58.1353 184.453 53.1732C184.473 52.0591 183.311 51.2051 182.108 51.6428C181.507 51.8617 181.042 52.4565 181.036 53.14C181.012 65.2377 181.131 74.2187 180.415 80.4386C179.795 86.4535 177.643 90.1313 174.561 91.2531C171.854 92.2381 169.851 91.1793 168.73 88.0971C167.635 85.0901 167.887 83.2104 168.14 59.1106C168.16 57.9965 167.148 57.0878 165.87 57.5529C165.269 57.7718 164.804 58.3666 164.798 59.0501C164.394 80.3955 164.204 85.4875 165.572 89.2463C167.433 94.3582 170.899 96.1616 175.635 94.4378L175.71 94.4105C179.093 93.1792 181.73 89.6653 182.788 85.7896C184.443 88.9332 186.836 90.3609 190.143 89.157C195.18 87.3238 197.27 81.37 198.079 68.3904C198.073 68.1375 198.066 67.8846 197.984 67.6591C197.765 67.0577 197.197 66.6683 196.562 66.5591ZM225.081 56.179C224.828 56.1859 224.575 56.1928 224.349 56.2749C223.748 56.4938 223.359 57.0612 223.277 57.772C223.606 62.4196 221.927 68.5647 217.942 70.0149C216.589 70.5074 215.12 70.4463 213.862 69.7973C215.091 64.7528 215.108 55.2114 213.22 50.0243C211.524 45.3634 208.522 42.0289 203.786 43.7526C201.005 44.765 199.147 47.1441 197.835 50.0903L197.862 48.2927C197.882 47.1787 196.72 46.3246 195.592 46.7351C194.916 46.9813 194.451 47.5761 194.472 48.3348L194.459 49.7017C194.405 52.3605 194.45 66.0507 194.433 79.3377L194.578 105.932C194.558 107.046 195.72 107.9 196.847 107.49C197.524 107.244 197.989 106.649 197.968 105.89C197.899 103.361 197.862 93.6694 197.824 83.0412C199.39 84.77 201.475 85.1179 204.386 84.2285C208.801 82.7919 211.541 78.3894 213.118 73.133C214.656 73.8502 216.836 73.9931 219.016 73.1996C224.203 71.3116 227.092 64.0453 226.646 57.9077C226.639 57.6549 226.66 57.4771 226.578 57.2516C226.359 56.6502 225.764 56.1856 225.081 56.179ZM208.412 62.0756C207.736 62.3218 207.223 63.0191 207.346 63.8256C207.511 66.1494 208.353 69.1633 210.151 71.0629C209.018 75.9023 206.798 79.8603 203.312 81.0438C201.18 81.7347 199.99 80.8056 199.033 78.1744C198.13 75.6936 198.3 74.5248 198.279 70.957C198.522 62.2698 198.922 49.0989 205.086 46.8553C207.341 46.0344 208.784 47.8931 209.933 51.0505C211.301 54.8092 211.576 60.2429 211.065 65.6221C210.921 64.9933 210.75 64.2894 210.73 63.5307C210.572 62.3962 209.465 61.6925 208.412 62.0756ZM233.479 10.9808C232.543 10.981 231.805 11.7604 231.88 12.6695L232.345 59.3241C232.345 60.2605 233.05 61.0258 233.986 61.0255C234.922 61.0252 235.66 60.2458 235.66 59.3094L235.195 12.6548C235.195 11.7184 234.415 10.9805 233.479 10.9808ZM233.298 68.257C231.869 68.7768 231.18 70.3901 231.699 71.8184C232.219 73.2467 233.757 73.9639 235.186 73.4441C236.614 72.9242 237.406 71.3588 236.887 69.9305C236.367 68.5021 234.726 67.7371 233.298 68.257Z" fill="#FFB5AB"/>
<path d="M95.8353 180.551C120.986 173.611 146.875 160.175 162.581 138.344C164.052 136.299 168.877 127.716 163.672 126.831C158.888 126.017 155.783 128.202 153.287 132.116C149.534 138.002 151.114 139.919 157.32 139.848C172.952 139.67 190.409 134.616 204.814 129.307C222.12 122.929 240.463 113.866 254.959 102.734" stroke="#FFB5AB" stroke-width="3" stroke-linecap="round" stroke-linejoin="round"/>
<path d="M256.347 101.44C256.15 105.35 256.033 109.267 255.602 113.161C255.492 114.156 255.398 116.589 254.466 117.323C254.19 117.54 249.701 113.74 249.397 113.517C245.672 110.791 241.938 108.119 238.482 105.042C236.434 103.217 234.59 101.19 232.712 99.1913C232.282 98.7332 231.843 98.2847 231.409 97.8305C231.01 97.4131 231.848 97.6676 232.048 97.688C237.338 98.2288 242.629 98.7132 247.91 99.349C250.205 99.6252 252.673 100.264 254.993 100.238" stroke="#FFB5AB" stroke-width="3" stroke-linecap="round" stroke-linejoin="round"/>
</svg>
