<svg width="70" height="70" viewBox="0 0 70 70" fill="none" xmlns="http://www.w3.org/2000/svg">
<path fill-rule="evenodd" clip-rule="evenodd" d="M51.9741 48.8531L45.9812 46.8559L43.8297 42.553C45.7679 40.5802 47.1137 37.9699 47.5675 35.2473L47.8358 33.6391H50.1304C52.2162 33.6391 53.913 31.9422 53.913 29.8565V21.913C53.913 11.4844 45.4286 3 35 3C24.5446 3 16.087 11.4601 16.087 21.913V29.8565C16.087 31.5002 17.1412 32.9018 18.6087 33.4222V34.9C18.6087 36.9857 20.3056 38.6826 22.3913 38.6826H23.4986C24.0452 39.8699 24.7527 40.9697 25.6136 41.9576C25.7921 42.1628 25.9784 42.3618 26.1691 42.5553L24.0188 46.8559L18.0258 48.8533C11.0576 51.1768 6 58.5124 6 66.2956C6 66.992 6.56449 67.5565 7.26087 67.5565H62.7391C63.4354 67.5565 64 66.992 64 66.2956C64 58.5124 58.9425 51.1768 51.9741 48.8531ZM51.3913 29.8565C51.3913 30.5517 50.8257 31.1174 50.1304 31.1174H48.2061C48.5266 28.6347 48.7402 25.9928 48.8261 23.3908C48.8277 23.3429 48.8291 23.2958 48.8306 23.2488L48.8306 23.2471L48.8329 23.1739H51.3913V29.8565ZM19.8696 31.1174C19.1743 31.1174 18.6087 30.5517 18.6087 29.8565V23.1739H21.168C21.1722 23.3054 21.1766 23.4375 21.1815 23.5706L21.182 23.5841V23.5852C21.2703 26.116 21.4811 28.6893 21.7943 31.1172H19.8696V31.1174ZM22.3913 36.1608C21.6961 36.1608 21.1304 35.5952 21.1304 34.9V33.6391H22.1641L22.4324 35.2479C22.4836 35.5536 22.5465 35.8582 22.6193 36.1608H22.3913ZM21.1326 20.6522H18.6566C19.2952 12.2017 26.3475 5.52174 35 5.52174C43.614 5.52174 50.6973 12.2008 51.3433 20.6522H48.8675C48.7768 13.6888 43.1063 8.04348 36.1286 8.04348H33.8716C26.8941 8.04348 21.2232 13.6888 21.1326 20.6522ZM36.1285 10.5652C41.7783 10.5652 46.3511 15.1864 46.3478 20.8299C46.3478 21.2267 46.3447 21.5722 46.338 21.8866L46.3379 21.8989L44.7608 21.6736C40.4763 21.0618 36.431 19.0391 33.3698 15.978C33.1333 15.7416 32.8126 15.6087 32.4783 15.6087C29.0921 15.6087 25.8506 17.1515 23.7079 19.758C24.236 14.6238 28.5762 10.5652 33.8715 10.5652H36.1285ZM25.2333 36.1608C24.6021 34.0611 23.8799 27.8829 23.7203 23.9237L25.4173 21.661C26.9758 19.5836 29.4006 18.2928 31.98 18.1447C35.3738 21.3745 39.7644 23.5074 44.4042 24.1699L46.2604 24.4351C46.1364 27.0685 45.8828 29.711 45.5196 32.1413L45.5192 32.1438C45.4387 32.6882 45.3701 33.0974 45.2573 33.7706L45.2573 33.7706L45.2568 33.7732C45.2078 34.0656 45.1505 34.4078 45.0801 34.8325C44.4124 38.8377 41.4239 42.4595 37.4787 43.4459C35.8551 43.8513 34.1446 43.8511 32.5219 43.4459C30.0585 42.8301 27.7998 41.1256 26.3421 38.6826H28.9125C29.433 40.1501 30.8345 41.2043 32.4783 41.2043H35C37.0899 41.2043 38.7826 39.5117 38.7826 37.4217C38.7826 35.336 37.0857 33.6391 35 33.6391H32.4783C30.7979 33.6391 29.4171 34.7245 28.9104 36.1608H25.2333ZM32.3722 45.9976C33.2371 46.1798 34.1188 46.273 35 46.273C35.6898 46.273 36.3798 46.2153 37.0619 46.1033L34.8339 48.4595L32.3722 45.9976ZM33.1005 50.2925L29.1013 54.5217C28.0003 52.4143 27.0543 50.2211 26.2783 47.9757L27.7801 44.972L33.1005 50.2925ZM42.0061 44.5449L43.7214 47.9756C42.9442 50.2247 41.998 52.4187 40.8981 54.5236L36.6177 50.2432L42.0061 44.5449ZM31.2174 37.4217C31.2174 36.7256 31.782 36.1608 32.4783 36.1608H35C35.6952 36.1608 36.2609 36.7265 36.2609 37.4217C36.2609 38.118 35.6961 38.6826 35 38.6826H32.4783C31.783 38.6826 31.2174 38.117 31.2174 37.4217ZM8.57217 65.0347C9.07186 58.7885 13.2288 53.1111 18.8233 51.2455L24.1308 49.4768C25.1032 52.1656 26.3078 54.779 27.7196 57.2614L27.7267 57.2741L27.7268 57.2743C28.7583 59.0886 29.9193 60.8615 31.1781 62.5447L32.7292 65.0347H8.57217ZM35 63.9108L33.29 61.1655C33.2708 61.1347 33.2504 61.1049 33.2287 61.0759C32.2077 59.7139 31.2552 58.2895 30.3877 56.8315L34.8844 52.0763L39.6225 56.8144C38.7492 58.2829 37.7935 59.7132 36.7715 61.0756L36.7603 61.0905C36.7331 61.1272 36.7089 61.1661 36.3751 61.7028C36.1282 62.0997 35.712 62.7689 35 63.9108ZM37.2708 65.0347L38.8218 62.5448C40.0861 60.8552 41.2554 59.0681 42.2973 57.2325L42.3066 57.2157L42.3158 57.1989L42.3181 57.1949C43.712 54.7362 44.904 52.1455 45.8692 49.4768L51.1766 51.2455C56.7712 53.1111 60.9281 58.7885 61.4278 65.0347H37.2708ZM48.8695 52.9318C48.1735 52.9318 47.6086 53.4967 47.6086 54.1927C47.6086 54.8887 48.1735 55.4536 48.8695 55.4536C49.5655 55.4536 50.1304 54.8887 50.1304 54.1927C50.1304 53.4967 49.5655 52.9318 48.8695 52.9318ZM54.0689 55.5997C55.5614 56.7479 56.7957 58.2463 57.6383 59.9329C57.9494 60.5559 57.6966 61.3132 57.0737 61.6244C56.4518 61.9351 55.6941 61.6839 55.3822 61.0599C54.7091 59.7124 53.7233 58.5155 52.5313 57.5984C51.9794 57.1738 51.8761 56.3822 52.3008 55.8302C52.7253 55.2782 53.5169 55.1749 54.0689 55.5997Z" fill="#FFB5AB"/>
</svg>
