<svg width="70" height="70" viewBox="0 0 70 70" fill="none" xmlns="http://www.w3.org/2000/svg">
<path d="M39.8438 57.5234C39.8438 56.8546 39.3015 56.3125 38.6328 56.3125H31.3672C30.6985 56.3125 30.1562 56.8546 30.1562 57.5234C30.1562 58.1922 30.6985 58.7344 31.3672 58.7344H38.6328C39.3015 58.7344 39.8438 58.1922 39.8438 57.5234Z" fill="#FFB5AB"/>
<path d="M5.21094 32.5781H15.625V61.1562C15.625 63.8271 17.7979 66 20.4688 66H29.5509C30.2196 66 30.7618 65.4579 30.7618 64.7891C30.7618 64.1203 30.2196 63.5781 29.5509 63.5781H20.4688C19.1333 63.5781 18.0469 62.4917 18.0469 61.1562V34.2908L23.2453 39.4892C23.5918 39.8356 24.1125 39.9391 24.565 39.7516C25.0174 39.5641 25.3125 39.1226 25.3125 38.6328V32.5781H27.7344C28.4031 32.5781 28.9453 32.036 28.9453 31.3672V16.8359C28.9453 16.1671 28.4031 15.625 27.7344 15.625H18.0469V8.84375C18.0469 7.50833 19.1333 6.42188 20.4688 6.42188H49.5312C50.8667 6.42188 51.9531 7.50833 51.9531 8.84375V19.2578H42.2656C41.5969 19.2578 41.0547 19.7999 41.0547 20.4688V35C41.0547 35.6688 41.5969 36.2109 42.2656 36.2109H44.6875V42.2656C44.6875 42.7553 44.9826 43.197 45.435 43.3844C45.8875 43.572 46.4084 43.4682 46.7547 43.122L51.9531 37.9236V61.1562C51.9531 62.4917 50.8667 63.5781 49.5312 63.5781H40.4493C39.7807 63.5781 39.2384 64.1203 39.2384 64.7891C39.2384 65.4579 39.7807 66 40.4493 66H49.5312C52.2021 66 54.375 63.8271 54.375 61.1562V36.2109H64.7891C65.4577 36.2109 66 35.6688 66 35V20.4688C66 19.7999 65.4577 19.2578 64.7891 19.2578H54.375V8.84375C54.375 6.17291 52.2021 4 49.5312 4H20.4688C17.7979 4 15.625 6.17291 15.625 8.84375V15.625H5.21094C4.54226 15.625 4 16.1671 4 16.8359V31.3672C4 32.036 4.54226 32.5781 5.21094 32.5781ZM63.5781 33.7891H53.1641C52.8321 33.7891 52.5212 33.9304 52.3078 34.1437L47.1094 39.3422V35C47.1094 34.3312 46.5671 33.7891 45.8984 33.7891H43.4766V21.6797H63.5781V33.7891ZM6.42188 18.0469H26.5234V30.1562H24.1016C23.4329 30.1562 22.8906 30.6984 22.8906 31.3672V35.7094L17.6922 30.5109C17.4742 30.293 17.1636 30.1562 16.8359 30.1562H6.42188V18.0469Z" fill="#FFB5AB"/>
<path d="M35 66C35.6688 66 36.2109 65.4578 36.2109 64.7891C36.2109 64.1203 35.6688 63.5781 35 63.5781C34.3312 63.5781 33.7891 64.1203 33.7891 64.7891C33.7891 65.4578 34.3312 66 35 66Z" fill="#FFB5AB"/>
</svg>
