<svg width="70" height="70" viewBox="0 0 70 70" fill="none" xmlns="http://www.w3.org/2000/svg">
<path d="M64.7992 46.0552H62.3416V18.0334C62.3416 15.8094 60.5322 14 58.3082 14H11.6919C9.46776 14 7.65849 15.8094 7.65849 18.0334V46.0552H5.20089C4.53766 46.0552 4 46.5927 4 47.256V49.6135C4 52.8803 6.65765 55.5379 9.9244 55.5379H60.0756C63.3424 55.5379 66 52.8803 66 49.6135V47.256C66.0001 46.5927 65.4626 46.0552 64.7992 46.0552ZM10.327 18.0334C10.327 17.2809 10.9394 16.6685 11.6919 16.6685H58.308C59.0607 16.6685 59.6728 17.2808 59.6728 18.0334V46.0552H41.6056C41.5205 46.0524 41.4327 46.0596 41.3455 46.0765C40.7802 46.1852 40.3718 46.68 40.3718 47.2556C40.3718 48.2692 39.5471 49.0938 38.5337 49.0938H31.4665C30.4529 49.0938 29.6285 48.2691 29.6285 47.2556C29.6285 46.5831 29.0713 46.0405 28.3997 46.0549H10.327V18.0334ZM63.5983 49.6135C63.5983 51.556 62.0179 53.1361 60.0757 53.1361H9.9244C7.98205 53.1361 6.40178 51.556 6.40178 49.6135V48.4569H27.3998C27.919 50.2117 29.5456 51.4957 31.4664 51.4957H38.5336C40.4544 51.4957 42.081 50.2116 42.6003 48.4569H63.5985V49.6135H63.5983Z" fill="#FFB5AB"/>
<path fill-rule="evenodd" clip-rule="evenodd" d="M55.2043 19.8029H14.7962C14.0594 19.8029 13.4619 20.4002 13.4619 21.1372V41.2901C13.4619 42.0271 14.0594 42.6245 14.7962 42.6245C15.5331 42.6245 16.1306 42.0271 16.1306 41.2901V22.4714H53.87V41.29C53.87 42.027 54.4675 42.6244 55.2043 42.6244C55.9412 42.6244 56.5387 42.027 56.5387 41.29V21.1371C56.5386 20.4002 55.9411 19.8029 55.2043 19.8029ZM36.9779 27.5591C36.4567 27.0381 35.6121 27.0381 35.0908 27.5591L26.6993 35.9509C26.1783 36.472 26.1783 37.3169 26.6993 37.8379C26.9599 38.0985 27.3014 38.2287 27.6428 38.2287C27.9843 38.2287 28.3256 38.0983 28.5862 37.8379L36.9779 29.4463C37.499 28.9252 37.499 28.0803 36.9779 27.5591ZM40.0647 32.4222C40.5859 31.9012 41.4305 31.9012 41.9517 32.4222C42.4728 32.9434 42.4728 33.7883 41.9516 34.3094L38.6087 37.6523C38.3481 37.9129 38.0068 38.043 37.6652 38.043C37.3239 38.043 36.9824 37.9129 36.7218 37.6523C36.2007 37.1311 36.2007 36.2862 36.7218 35.7651L40.0647 32.4222Z" fill="#FFB5AB"/>
</svg>
