<svg width="20" height="20" viewBox="0 0 20 20" fill="none" xmlns="http://www.w3.org/2000/svg">
<path fill-rule="evenodd" clip-rule="evenodd" d="M20 8.115C20 3.64084 15.5142 0 10 0C4.48667 0 0 3.64084 0 8.115C0 12.1267 3.5575 15.4867 8.36333 16.1217C8.68917 16.1917 9.13167 16.3367 9.24417 16.615C9.345 16.8675 9.31 17.2633 9.27667 17.5192L9.13417 18.375C9.09 18.6275 8.9325 19.3633 10 18.9142C11.0675 18.4642 15.7592 15.5233 17.8567 13.1083C19.3058 11.5192 20 9.90584 20 8.115V8.115ZM4.17667 5.9525C4.28417 5.9525 4.37167 6.04 4.37167 6.1475V9.60834H6.2775C6.385 9.60834 6.47167 9.69501 6.47167 9.80251V10.5042C6.47167 10.6117 6.385 10.6992 6.2775 10.6992H3.475C3.4225 10.6992 3.37583 10.6783 3.34083 10.645L3.34 10.6442L3.33833 10.6425L3.3375 10.6417L3.335 10.6392C3.30167 10.6042 3.28083 10.5567 3.28083 10.505V6.1475C3.28083 6.04 3.3675 5.9525 3.475 5.9525H4.17667V5.9525ZM16.67 5.9525C16.7775 5.9525 16.8642 6.04 16.8642 6.1475V6.84917C16.8642 6.95667 16.7775 7.04417 16.67 7.04417H14.7642V7.78H16.67C16.7775 7.78 16.8642 7.8675 16.8642 7.975V8.67667C16.8642 8.78417 16.7775 8.87167 16.67 8.87167H14.7642V9.60834H16.67C16.7775 9.60834 16.8642 9.69584 16.8642 9.80251V10.5042C16.8642 10.6117 16.7775 10.6992 16.67 10.6992H13.8675C13.815 10.6992 13.7675 10.6783 13.7325 10.645L13.73 10.6417L13.7275 10.6392C13.6942 10.6042 13.6725 10.5567 13.6725 10.505V6.1475C13.6725 6.09584 13.6933 6.04834 13.7267 6.01334L13.73 6.01L13.7325 6.0075C13.7675 5.97417 13.815 5.9525 13.8675 5.9525H16.67V5.9525ZM7.96833 5.95334C8.07583 5.95334 8.16333 6.04 8.16333 6.1475V10.505C8.16333 10.6117 8.07583 10.6992 7.96833 10.6992H7.26667C7.15917 10.6992 7.07167 10.6117 7.07167 10.505V6.1475C7.07167 6.04 7.15917 5.95334 7.26667 5.95334H7.96833V5.95334ZM9.74083 5.95334H9.7475L9.7575 5.95417L9.76833 5.955L9.77667 5.95584L9.7875 5.95834L9.79417 5.96084L9.80583 5.96417L9.8125 5.96667L9.82333 5.97167L9.82917 5.97417L9.84 5.98L9.84583 5.98334L9.85583 5.99084L9.86083 5.99417L9.87167 6.00334L9.875 6.00667L9.88667 6.01834L9.88833 6.02L9.90333 6.03917L11.9 8.73584V6.1475C11.9 6.04 11.9875 5.95334 12.095 5.95334H12.7958C12.9042 5.95334 12.9908 6.04 12.9908 6.1475V10.505C12.9908 10.6117 12.9042 10.6992 12.7958 10.6992H12.095L12.045 10.6925L12.0417 10.6917L12.0292 10.6875L12.0233 10.685L12.0133 10.6817L12.0042 10.6767L11.9983 10.6742L11.9867 10.6667L11.985 10.665L11.935 10.6167L9.93583 7.91667V10.505C9.93583 10.6117 9.84917 10.6992 9.74083 10.6992H9.04C8.9325 10.6992 8.845 10.6117 8.845 10.505V6.1475C8.845 6.04 8.9325 5.95334 9.04 5.95334H9.74083V5.95334Z" fill="#50575B"/>
</svg>
