<svg width="48" height="48" viewBox="0 0 48 48" fill="none" xmlns="http://www.w3.org/2000/svg">
<rect width="48" height="48" rx="22" fill="#FFB5AB"/>
<path d="M15.7758 19.5136L17.3121 19.7845L16.0983 26.6683L14.562 26.3974L12.0432 21.5057L11.2826 25.8192L9.74633 25.5483L10.9601 18.6645L12.3979 18.918L14.9944 23.9452L15.7758 19.5136ZM24.3671 21.0285L24.1258 22.3974L20.6986 21.7931L20.4486 23.2112L23.531 23.7547L23.3001 25.0645L20.2176 24.521L19.9658 25.949L23.5013 26.5724L23.2617 27.9314L18.1899 27.0371L19.4037 20.1533L24.3671 21.0285ZM27.69 25.6964L29.6092 21.9528L31.2145 22.2359L31.7277 26.4084L33.7947 22.6908L35.459 22.9843L31.8423 29.4444L30.6999 29.243L30.0371 24.1911L27.6962 28.7133L26.5538 28.5119L25.3647 21.2044L27.029 21.4979L27.69 25.6964ZM36.4985 23.1676L38.2416 23.4749L38.0263 24.6961L37.1057 28.1893L35.9436 27.9844L36.2832 24.3887L36.4985 23.1676ZM35.5604 29.9274C35.4264 29.7277 35.3808 29.5065 35.4236 29.2635C35.4665 29.0206 35.5844 28.8316 35.7775 28.6964C35.9783 28.5558 36.2001 28.5069 36.4431 28.5497C36.686 28.5925 36.8745 28.7138 37.0085 28.9134C37.1502 29.1077 37.1997 29.3262 37.1569 29.5692C37.114 29.8121 36.9922 30.0038 36.7914 30.1444C36.5984 30.2796 36.3804 30.3258 36.1374 30.283C35.8945 30.2401 35.7022 30.1216 35.5604 29.9274Z" fill="white"/>
</svg>
