<svg width="16" height="18" viewBox="0 0 16 18" fill="none" xmlns="http://www.w3.org/2000/svg">
<path fill-rule="evenodd" clip-rule="evenodd" d="M6.11698 6.09864V4.72197C6.11698 4.47109 6.12997 4.38743 6.16859 4.25872C6.27182 3.90493 6.62036 3.64121 7.03327 3.64121C7.44618 3.64121 7.7946 3.91134 7.89783 4.25872C7.93657 4.38743 7.94956 4.47109 7.94956 4.72197V6.84485C7.94956 6.97356 7.94956 7.10215 7.92369 7.21802C7.85277 7.53961 7.5624 7.82922 7.23972 7.89993C7.12362 7.92561 6.99453 7.92561 6.86544 7.92561H4.73617C4.48454 7.92561 4.40062 7.91277 4.27153 7.87415C3.92311 7.77123 3.65216 7.42385 3.65216 7.01218C3.65216 6.60039 3.92311 6.25302 4.27153 6.1501C4.40062 6.11148 4.48454 6.09864 4.73617 6.09864H6.11698ZM13.7051 15.7227H2.28423V5.69339C2.28423 5.56468 2.3294 5.45534 2.41975 5.36526L5.3814 2.41239C5.47175 2.32242 5.58142 2.27738 5.71051 2.27738H13.7051V15.7227ZM15.0021 0.0128359C14.9441 0.00641784 14.8666 0 14.7182 0H5.40715C5.30403 0 5.20081 0.00641784 5.12977 0.0128359C4.70387 0.0514588 4.32314 0.250877 4.0199 0.553214L0.554877 4.00784C0.251747 4.3103 0.0516142 4.68976 0.01299 5.11439C0.00643773 5.1851 0 5.28802 0 5.39093V16.7327C0 16.8806 0.00643773 16.9579 0.01299 17.0157C0.0644888 17.4982 0.503263 17.9356 0.987215 17.9871C1.04538 17.9936 1.12274 18 1.27115 18H14.7182C14.8666 18 14.9441 17.9936 15.0021 17.9871C15.4861 17.9356 15.9249 17.4982 15.9765 17.0157C15.9828 16.9579 15.9894 16.8806 15.9894 16.7327V1.26734C15.9894 1.11938 15.9828 1.04213 15.9765 0.984255C15.9249 0.501754 15.4861 0.0642949 15.0021 0.0128359Z" fill="#50575B"/>
</svg>
