<svg width="20" height="20" viewBox="0 0 20 20" fill="none" xmlns="http://www.w3.org/2000/svg">
<path fill-rule="evenodd" clip-rule="evenodd" d="M11.4167 3.42843C11.1217 3.90095 10.5983 4.21541 10 4.21541C9.08 4.21541 8.33333 3.47003 8.33333 2.55162C8.33333 1.6332 9.08 0.887825 10 0.887825C10.6325 0.887825 11.1833 1.24055 11.4658 1.75882C13.6242 2.00423 15.1208 3.24458 14.9933 5.28522C14.8392 7.66361 12.2483 11.6234 9.9925 13.3463C9.91167 14.2389 9.40167 15.2031 8.4975 15.7654C9.325 17.104 10.6108 17.6663 12.0125 17.5016C13.37 17.3427 14.6325 16.3652 15.3125 15.2613C14.6158 14.7281 14.1667 13.8912 14.1667 12.9503C14.1667 11.3431 15.4733 10.0378 17.0833 10.0378C18.6925 10.0378 20 11.3431 20 12.9503C20 14.5609 18.6692 15.946 16.8933 15.8545C15.9308 17.6281 13.8925 19.1895 11.6 19.1895C9.33917 19.1895 7.6075 17.9442 6.66667 15.8611C5.78917 15.3362 5.1425 14.2497 5.0125 13.3413C2.7 11.5627 0 7.37578 0 5.05312C0 3.07155 1.5625 1.99009 3.53333 1.76132C3.815 1.24138 4.36667 0.887825 5 0.887825C5.92 0.887825 6.66667 1.6332 6.66667 2.55162C6.66667 3.47003 5.92 4.21541 5 4.21541C4.40417 4.21541 3.88083 3.90261 3.58667 3.43259C1.87833 3.68133 1.46 4.50324 1.76167 5.70533C2.28917 7.84081 4.76583 11.4188 6.685 12.4612C7.31583 12.8072 7.67917 12.8114 8.31833 12.4628C10.59 11.2291 13.3025 6.89161 13.3333 5.09389C13.3517 4.02241 12.4758 3.57901 11.4167 3.42843ZM17.0833 14.1981C16.3933 14.1981 15.8333 13.6375 15.8333 12.9503C15.8333 12.2615 16.3933 11.7025 17.0833 11.7025C17.7733 11.7025 18.3333 12.2615 18.3333 12.9503C18.3333 13.6375 17.7733 14.1981 17.0833 14.1981Z" fill="white"/>
</svg>
