<svg width="60" height="60" viewBox="0 0 60 60" fill="none" xmlns="http://www.w3.org/2000/svg">
<path fill-rule="evenodd" clip-rule="evenodd" d="M60 30C60 46.5685 46.5685 60 30 60C13.4315 60 0 46.5685 0 30C0 13.4315 13.4315 0 30 0C46.5685 0 60 13.4315 60 30ZM45.4318 30.166C45.4318 31.2751 45.3114 32.3546 45.08 33.397C45.6689 34.5655 46 35.8805 46 37.2734C46 42.092 42.0376 46 37.1496 46C35.635 46 34.2126 45.6235 32.9652 44.9632C32.0583 45.1283 31.1251 45.2154 30.1693 45.2154C21.7404 45.2154 14.9069 38.479 14.9069 30.166C14.9069 29.1311 15.0141 28.1184 15.2154 27.1428C14.444 25.8444 14 24.3384 14 22.7285C14 17.9061 17.9624 14 22.8523 14C24.5814 14 26.1957 14.4915 27.5597 15.3391C28.4102 15.1945 29.2813 15.1184 30.1693 15.1184C38.6002 15.1184 45.4318 21.8567 45.4318 30.166Z" fill="white"/>
<path fill-rule="evenodd" clip-rule="evenodd" d="M37.9982 37.3587C37.2926 38.3455 36.2503 39.1245 34.8956 39.6772C33.5579 40.2262 31.9549 40.5062 30.128 40.5062C27.9361 40.5062 26.0979 40.126 24.6623 39.3748C23.6369 38.8296 22.7921 38.0914 22.1506 37.1751C21.5014 36.2552 21.1741 35.3408 21.1741 34.4561C21.1741 33.907 21.3886 33.4285 21.81 33.0372C22.2277 32.6477 22.7639 32.4529 23.4036 32.4529C23.9267 32.4529 24.3801 32.6069 24.747 32.9129C25.0988 33.2078 25.3998 33.6437 25.6426 34.202C25.9135 34.814 26.207 35.3296 26.5174 35.7321C26.8185 36.1253 27.2493 36.4536 27.7987 36.7114C28.3519 36.9674 29.0988 37.1009 30.0151 37.1009C31.2776 37.1009 32.3124 36.8338 33.0894 36.3108C33.8514 35.8007 34.2202 35.185 34.2202 34.4319C34.2202 33.8403 34.0264 33.3729 33.6313 33.0056C33.2136 32.6236 32.6661 32.3268 32.0019 32.1191C31.3077 31.9076 30.3669 31.6758 29.2023 31.4347C27.6162 31.1008 26.271 30.7057 25.2023 30.255C24.1073 29.7969 23.2249 29.1607 22.5795 28.3651C21.9248 27.5545 21.5918 26.54 21.5918 25.3474C21.5918 24.2123 21.9398 23.1866 22.6284 22.3037C23.3095 21.4264 24.3067 20.7402 25.5918 20.2746C26.858 19.8128 28.3632 19.5791 30.0697 19.5791C31.4318 19.5791 32.6303 19.7349 33.6313 20.0428C34.6379 20.3507 35.4845 20.7661 36.1506 21.2799C36.8222 21.7992 37.3227 22.3501 37.635 22.9251C37.9511 23.5056 38.1129 24.0824 38.1129 24.6407C38.1129 25.1786 37.9022 25.6682 37.4864 26.093C37.0687 26.5233 36.54 26.7403 35.9191 26.7403C35.3547 26.7403 34.9107 26.603 34.6059 26.336C34.3199 26.0856 34.0226 25.6961 33.6934 25.1396C33.3133 24.4274 32.8523 23.8654 32.3236 23.4685C31.81 23.0827 30.9539 22.8898 29.7743 22.8898C28.683 22.8898 27.7912 23.105 27.1308 23.5334C26.4949 23.9433 26.1844 24.4163 26.1844 24.9764C26.1844 25.3177 26.2841 25.6052 26.4911 25.85C26.7056 26.1134 27.0123 26.3397 27.3998 26.5326C27.8006 26.731 28.2145 26.8905 28.6284 27.0018C29.0518 27.1187 29.763 27.2912 30.7395 27.5137C31.9756 27.7734 33.1101 28.0683 34.1129 28.3855C35.1308 28.7045 36.0076 29.0977 36.7263 29.5595C37.4563 30.0288 38.0339 30.6297 38.4459 31.3493C38.858 32.0746 39.0668 32.9648 39.0668 34.0016C39.0668 35.2406 38.7056 36.3702 37.9982 37.3587Z" fill="white"/>
</svg>
