<svg width="20" height="20" viewBox="0 0 20 20" fill="none" xmlns="http://www.w3.org/2000/svg">
<path fill-rule="evenodd" clip-rule="evenodd" d="M9.99958 0.889542C4.71814 0.889542 0 4.40513 0 9.21432C0 10.9197 0.614974 12.5943 1.70576 13.8937C1.75159 15.4161 0.853298 17.6007 0.0449981 19.1912C2.21324 18.8003 5.29561 17.9367 6.69305 17.0816C7.87467 17.3686 9.00546 17.5 10.0754 17.5C15.9785 17.5 20 13.4761 20 9.21349C19.9992 4.37934 15.2485 0.889542 9.99958 0.889542ZM5.74995 10.1439C6.44075 10.1439 6.9999 9.58574 6.9999 8.8961C6.9999 8.20646 6.44075 7.64825 5.74995 7.64825C5.05998 7.64825 4.5 8.20646 4.5 8.8961C4.5 9.58574 5.05998 10.1439 5.74995 10.1439ZM8.66649 8.8961C8.66649 8.20646 9.22647 7.64825 9.91644 7.64825C10.6072 7.64825 11.1664 8.20646 11.1664 8.8961C11.1664 9.58574 10.6072 10.1439 9.91644 10.1439C9.22647 10.1439 8.66649 9.58574 8.66649 8.8961ZM14.0829 7.64825C13.393 7.64825 12.833 8.20646 12.833 8.8961C12.833 9.58574 13.393 10.1439 14.0829 10.1439C14.7737 10.1439 15.3329 9.58574 15.3329 8.8961C15.3329 8.20646 14.7737 7.64825 14.0829 7.64825Z" fill="white"/>
</svg>
